<mxfile host="65bd71144e">
    <diagram id="5qtFEe8_QqCSafaba-3f" name="第 1 页">
        <mxGraphModel dx="1163" dy="1426" grid="1" gridSize="10" guides="1" tooltips="1" connect="1" arrows="1" fold="1" page="1" pageScale="1" pageWidth="827" pageHeight="1169" math="0" shadow="0">
            <root>
                <mxCell id="0"/>
                <mxCell id="1" parent="0"/>
                <mxCell id="33" value="" style="group" parent="1" vertex="1" connectable="0">
                    <mxGeometry x="114" y="-200" width="350" height="40" as="geometry"/>
                </mxCell>
                <mxCell id="28" value="IF" style="whiteSpace=wrap;html=1;align=center;fontSize=23;fillColor=#f5f5f5;fontColor=#333333;strokeColor=#666666;" parent="33" vertex="1">
                    <mxGeometry width="70" height="40" as="geometry"/>
                </mxCell>
                <mxCell id="29" value="ID" style="whiteSpace=wrap;html=1;align=center;fontSize=23;fillColor=#dae8fc;strokeColor=#6c8ebf;" parent="33" vertex="1">
                    <mxGeometry x="70" width="70" height="40" as="geometry"/>
                </mxCell>
                <mxCell id="30" value="EX" style="whiteSpace=wrap;html=1;align=center;fontSize=23;fillColor=#d5e8d4;strokeColor=#82b366;" parent="33" vertex="1">
                    <mxGeometry x="140" width="70" height="40" as="geometry"/>
                </mxCell>
                <mxCell id="31" value="MEM" style="whiteSpace=wrap;html=1;align=center;fontSize=23;fillColor=#ffe6cc;strokeColor=#d79b00;" parent="33" vertex="1">
                    <mxGeometry x="210" width="70" height="40" as="geometry"/>
                </mxCell>
                <mxCell id="32" value="RW" style="whiteSpace=wrap;html=1;align=center;fontSize=23;fillColor=#f8cecc;strokeColor=#b85450;" parent="33" vertex="1">
                    <mxGeometry x="280" width="70" height="40" as="geometry"/>
                </mxCell>
                <mxCell id="36" value="" style="group" parent="1" vertex="1" connectable="0">
                    <mxGeometry x="184" y="-160" width="350" height="40" as="geometry"/>
                </mxCell>
                <mxCell id="37" value="IF" style="whiteSpace=wrap;html=1;align=center;fontSize=23;fillColor=#f5f5f5;fontColor=#333333;strokeColor=#666666;" parent="36" vertex="1">
                    <mxGeometry width="70" height="40" as="geometry"/>
                </mxCell>
                <mxCell id="38" value="ID" style="whiteSpace=wrap;html=1;align=center;fontSize=23;fillColor=#dae8fc;strokeColor=#6c8ebf;" parent="36" vertex="1">
                    <mxGeometry x="70" width="70" height="40" as="geometry"/>
                </mxCell>
                <mxCell id="39" value="EX" style="whiteSpace=wrap;html=1;align=center;fontSize=23;fillColor=#d5e8d4;strokeColor=#82b366;" parent="36" vertex="1">
                    <mxGeometry x="140" width="70" height="40" as="geometry"/>
                </mxCell>
                <mxCell id="40" value="MEM" style="whiteSpace=wrap;html=1;align=center;fontSize=23;fillColor=#ffe6cc;strokeColor=#d79b00;" parent="36" vertex="1">
                    <mxGeometry x="210" width="70" height="40" as="geometry"/>
                </mxCell>
                <mxCell id="41" value="RW" style="whiteSpace=wrap;html=1;align=center;fontSize=23;fillColor=#f8cecc;strokeColor=#b85450;" parent="36" vertex="1">
                    <mxGeometry x="280" width="70" height="40" as="geometry"/>
                </mxCell>
                <mxCell id="60" value="" style="group" parent="1" vertex="1" connectable="0">
                    <mxGeometry x="44" y="-240" width="350" height="40" as="geometry"/>
                </mxCell>
                <mxCell id="61" value="IF" style="whiteSpace=wrap;html=1;align=center;fontSize=23;fillColor=#f5f5f5;fontColor=#333333;strokeColor=#666666;" parent="60" vertex="1">
                    <mxGeometry width="70" height="40" as="geometry"/>
                </mxCell>
                <mxCell id="62" value="ID" style="whiteSpace=wrap;html=1;align=center;fontSize=23;fillColor=#dae8fc;strokeColor=#6c8ebf;" parent="60" vertex="1">
                    <mxGeometry x="70" width="80" height="40" as="geometry"/>
                </mxCell>
                <mxCell id="63" value="EX" style="whiteSpace=wrap;html=1;align=center;fontSize=23;fillColor=#d5e8d4;strokeColor=#82b366;" parent="60" vertex="1">
                    <mxGeometry x="140" width="70" height="40" as="geometry"/>
                </mxCell>
                <mxCell id="64" value="MEM" style="whiteSpace=wrap;html=1;align=center;fontSize=23;fillColor=#ffe6cc;strokeColor=#d79b00;" parent="60" vertex="1">
                    <mxGeometry x="210" width="70" height="40" as="geometry"/>
                </mxCell>
                <mxCell id="65" value="RW" style="whiteSpace=wrap;html=1;align=center;fontSize=23;fillColor=#f8cecc;strokeColor=#b85450;" parent="60" vertex="1">
                    <mxGeometry x="280" width="70" height="40" as="geometry"/>
                </mxCell>
                <mxCell id="67" value="li a3 10" style="text;html=1;strokeColor=none;fillColor=none;align=center;verticalAlign=middle;whiteSpace=wrap;rounded=0;fontSize=23;" parent="1" vertex="1">
                    <mxGeometry x="14" y="-195" width="90" height="30" as="geometry"/>
                </mxCell>
                <mxCell id="71" value="load a3 10" style="text;html=1;strokeColor=none;fillColor=none;align=center;verticalAlign=middle;whiteSpace=wrap;rounded=0;fontSize=23;" parent="1" vertex="1">
                    <mxGeometry x="44" y="-150" width="120" height="30" as="geometry"/>
                </mxCell>
                <mxCell id="78" value="ID" style="whiteSpace=wrap;html=1;align=center;fontSize=23;fillColor=#a20025;fontColor=#ffffff;strokeColor=#6F0000;" parent="1" vertex="1">
                    <mxGeometry x="324" y="-120" width="70" height="40" as="geometry"/>
                </mxCell>
                <mxCell id="43" value="IF" style="whiteSpace=wrap;html=1;align=center;fontSize=23;fillColor=#f5f5f5;fontColor=#333333;strokeColor=#666666;" parent="1" vertex="1">
                    <mxGeometry x="254" y="-120" width="70" height="40" as="geometry"/>
                </mxCell>
                <mxCell id="44" value="ID" style="whiteSpace=wrap;html=1;align=center;fontSize=23;fillColor=#dae8fc;strokeColor=#6c8ebf;" parent="1" vertex="1">
                    <mxGeometry x="394" y="-120" width="70" height="40" as="geometry"/>
                </mxCell>
                <mxCell id="45" value="EX" style="whiteSpace=wrap;html=1;align=center;fontSize=23;fillColor=#d5e8d4;strokeColor=#82b366;" parent="1" vertex="1">
                    <mxGeometry x="464" y="-120" width="70" height="40" as="geometry"/>
                </mxCell>
                <mxCell id="46" value="MEM" style="whiteSpace=wrap;html=1;align=center;fontSize=23;fillColor=#ffe6cc;strokeColor=#d79b00;" parent="1" vertex="1">
                    <mxGeometry x="534" y="-120" width="70" height="40" as="geometry"/>
                </mxCell>
                <mxCell id="47" value="RW" style="whiteSpace=wrap;html=1;align=center;fontSize=23;fillColor=#f8cecc;strokeColor=#b85450;" parent="1" vertex="1">
                    <mxGeometry x="604" y="-120" width="70" height="40" as="geometry"/>
                </mxCell>
                <mxCell id="83" value="" style="group" parent="1" vertex="1" connectable="0">
                    <mxGeometry x="180" y="470" width="350" height="40" as="geometry"/>
                </mxCell>
                <mxCell id="84" value="IF" style="whiteSpace=wrap;html=1;align=center;fontSize=23;fillColor=#f5f5f5;fontColor=#333333;strokeColor=#666666;" parent="83" vertex="1">
                    <mxGeometry width="70" height="40" as="geometry"/>
                </mxCell>
                <mxCell id="85" value="ID" style="whiteSpace=wrap;html=1;align=center;fontSize=23;fillColor=#dae8fc;strokeColor=#6c8ebf;" parent="83" vertex="1">
                    <mxGeometry x="70" width="70" height="40" as="geometry"/>
                </mxCell>
                <mxCell id="86" value="EX" style="whiteSpace=wrap;html=1;align=center;fontSize=23;fillColor=#d5e8d4;strokeColor=#82b366;" parent="83" vertex="1">
                    <mxGeometry x="140" width="70" height="40" as="geometry"/>
                </mxCell>
                <mxCell id="87" value="MEM" style="whiteSpace=wrap;html=1;align=center;fontSize=23;fillColor=#ffe6cc;strokeColor=#d79b00;" parent="83" vertex="1">
                    <mxGeometry x="210" width="70" height="40" as="geometry"/>
                </mxCell>
                <mxCell id="88" value="RW" style="whiteSpace=wrap;html=1;align=center;fontSize=23;fillColor=#f8cecc;strokeColor=#b85450;" parent="83" vertex="1">
                    <mxGeometry x="280" width="70" height="40" as="geometry"/>
                </mxCell>
                <mxCell id="89" value="0x00 jal 0x2C" style="text;html=1;strokeColor=none;fillColor=none;align=center;verticalAlign=middle;whiteSpace=wrap;rounded=0;fontSize=23;" parent="1" vertex="1">
                    <mxGeometry x="-20" y="475" width="210" height="30" as="geometry"/>
                </mxCell>
                <mxCell id="90" value="0x04 jarl a3 10" style="text;html=1;strokeColor=none;fillColor=none;align=center;verticalAlign=middle;whiteSpace=wrap;rounded=0;fontSize=23;" parent="1" vertex="1">
                    <mxGeometry x="40" y="520" width="180" height="30" as="geometry"/>
                </mxCell>
                <mxCell id="91" value="" style="group" parent="1" vertex="1" connectable="0">
                    <mxGeometry x="250" y="510" width="350" height="40" as="geometry"/>
                </mxCell>
                <mxCell id="92" value="IF" style="whiteSpace=wrap;html=1;align=center;fontSize=23;fillColor=#f5f5f5;fontColor=#333333;strokeColor=#666666;" parent="91" vertex="1">
                    <mxGeometry width="70" height="40" as="geometry"/>
                </mxCell>
                <mxCell id="93" value="ID" style="whiteSpace=wrap;html=1;align=center;fontSize=23;fillColor=#dae8fc;strokeColor=#6c8ebf;" parent="91" vertex="1">
                    <mxGeometry x="70" width="70" height="40" as="geometry"/>
                </mxCell>
                <mxCell id="94" value="EX" style="whiteSpace=wrap;html=1;align=center;fontSize=23;fillColor=#d5e8d4;strokeColor=#82b366;" parent="91" vertex="1">
                    <mxGeometry x="140" width="70" height="40" as="geometry"/>
                </mxCell>
                <mxCell id="95" value="MEM" style="whiteSpace=wrap;html=1;align=center;fontSize=23;fillColor=#ffe6cc;strokeColor=#d79b00;" parent="91" vertex="1">
                    <mxGeometry x="210" width="70" height="40" as="geometry"/>
                </mxCell>
                <mxCell id="96" value="RW" style="whiteSpace=wrap;html=1;align=center;fontSize=23;fillColor=#f8cecc;strokeColor=#b85450;" parent="91" vertex="1">
                    <mxGeometry x="280" width="70" height="40" as="geometry"/>
                </mxCell>
                <mxCell id="98" value="" style="group" parent="1" vertex="1" connectable="0">
                    <mxGeometry x="390" y="590" width="350" height="40" as="geometry"/>
                </mxCell>
                <mxCell id="99" value="IF" style="whiteSpace=wrap;html=1;align=center;fontSize=23;fillColor=#f5f5f5;fontColor=#333333;strokeColor=#666666;" parent="98" vertex="1">
                    <mxGeometry width="70" height="40" as="geometry"/>
                </mxCell>
                <mxCell id="134" value="ID&lt;br style=&quot;font-size: 17px;&quot;&gt;(nop)" style="whiteSpace=wrap;html=1;align=center;fontSize=17;fillColor=#a20025;fontColor=#ffffff;strokeColor=#6F0000;" parent="98" vertex="1">
                    <mxGeometry x="70" width="70" height="40" as="geometry"/>
                </mxCell>
                <mxCell id="180" value="EX&lt;br style=&quot;font-size: 17px;&quot;&gt;（nop）" style="whiteSpace=wrap;html=1;align=center;fontSize=17;fillColor=#a20025;fontColor=#ffffff;strokeColor=#6F0000;" parent="98" vertex="1">
                    <mxGeometry x="140" width="70" height="40" as="geometry"/>
                </mxCell>
                <mxCell id="181" value="MEM&lt;br style=&quot;font-size: 17px;&quot;&gt;(nop)" style="whiteSpace=wrap;html=1;align=center;fontSize=17;fillColor=#a20025;fontColor=#ffffff;strokeColor=#6F0000;" parent="98" vertex="1">
                    <mxGeometry x="210" width="70" height="40" as="geometry"/>
                </mxCell>
                <mxCell id="182" value="WB&lt;br style=&quot;font-size: 17px;&quot;&gt;(nop)" style="whiteSpace=wrap;html=1;align=center;fontSize=17;fillColor=#a20025;fontColor=#ffffff;strokeColor=#6F0000;" parent="98" vertex="1">
                    <mxGeometry x="280" width="70" height="40" as="geometry"/>
                </mxCell>
                <mxCell id="104" value="0x08 li a3 10" style="text;html=1;strokeColor=none;fillColor=none;align=center;verticalAlign=middle;whiteSpace=wrap;rounded=0;fontSize=23;" parent="1" vertex="1">
                    <mxGeometry x="290" y="640" width="150" height="30" as="geometry"/>
                </mxCell>
                <mxCell id="105" value="" style="group;fontSize=11;" parent="1" vertex="1" connectable="0">
                    <mxGeometry x="320" y="550" width="350" height="40" as="geometry"/>
                </mxCell>
                <mxCell id="106" value="IF" style="whiteSpace=wrap;html=1;align=center;fontSize=23;fillColor=#f5f5f5;fontColor=#333333;strokeColor=#666666;" parent="105" vertex="1">
                    <mxGeometry width="70" height="40" as="geometry"/>
                </mxCell>
                <mxCell id="107" value="ID" style="whiteSpace=wrap;html=1;align=center;fontSize=23;fillColor=#dae8fc;strokeColor=#6c8ebf;" parent="105" vertex="1">
                    <mxGeometry x="70" width="70" height="40" as="geometry"/>
                </mxCell>
                <mxCell id="81" value="EX&lt;br style=&quot;font-size: 17px;&quot;&gt;（nop）" style="whiteSpace=wrap;html=1;align=center;fontSize=17;fillColor=#a20025;fontColor=#ffffff;strokeColor=#6F0000;" parent="105" vertex="1">
                    <mxGeometry x="140" width="70" height="40" as="geometry"/>
                </mxCell>
                <mxCell id="140" value="MEM&lt;br style=&quot;font-size: 17px;&quot;&gt;(nop)" style="whiteSpace=wrap;html=1;align=center;fontSize=17;fillColor=#a20025;fontColor=#ffffff;strokeColor=#6F0000;" parent="105" vertex="1">
                    <mxGeometry x="210" width="70" height="40" as="geometry"/>
                </mxCell>
                <mxCell id="141" value="WB&lt;br style=&quot;font-size: 17px;&quot;&gt;(nop)" style="whiteSpace=wrap;html=1;align=center;fontSize=17;fillColor=#a20025;fontColor=#ffffff;strokeColor=#6F0000;" parent="105" vertex="1">
                    <mxGeometry x="280" width="70" height="40" as="geometry"/>
                </mxCell>
                <mxCell id="112" value="" style="group" parent="1" vertex="1" connectable="0">
                    <mxGeometry x="460" y="630" width="350" height="40" as="geometry"/>
                </mxCell>
                <mxCell id="113" value="IF" style="whiteSpace=wrap;html=1;align=center;fontSize=23;fillColor=#f5f5f5;fontColor=#333333;strokeColor=#666666;" parent="112" vertex="1">
                    <mxGeometry width="70" height="40" as="geometry"/>
                </mxCell>
                <mxCell id="114" value="ID" style="whiteSpace=wrap;html=1;align=center;fontSize=23;fillColor=#dae8fc;strokeColor=#6c8ebf;" parent="112" vertex="1">
                    <mxGeometry x="70" width="70" height="40" as="geometry"/>
                </mxCell>
                <mxCell id="115" value="EX" style="whiteSpace=wrap;html=1;align=center;fontSize=23;fillColor=#d5e8d4;strokeColor=#82b366;" parent="112" vertex="1">
                    <mxGeometry x="140" width="70" height="40" as="geometry"/>
                </mxCell>
                <mxCell id="116" value="MEM" style="whiteSpace=wrap;html=1;align=center;fontSize=23;fillColor=#ffe6cc;strokeColor=#d79b00;" parent="112" vertex="1">
                    <mxGeometry x="210" width="70" height="40" as="geometry"/>
                </mxCell>
                <mxCell id="117" value="RW" style="whiteSpace=wrap;html=1;align=center;fontSize=23;fillColor=#f8cecc;strokeColor=#b85450;" parent="112" vertex="1">
                    <mxGeometry x="280" width="70" height="40" as="geometry"/>
                </mxCell>
                <mxCell id="118" value="" style="group" parent="1" vertex="1" connectable="0">
                    <mxGeometry x="530" y="670" width="350" height="40" as="geometry"/>
                </mxCell>
                <mxCell id="119" value="IF" style="whiteSpace=wrap;html=1;align=center;fontSize=23;fillColor=#f5f5f5;fontColor=#333333;strokeColor=#666666;" parent="118" vertex="1">
                    <mxGeometry width="70" height="40" as="geometry"/>
                </mxCell>
                <mxCell id="120" value="ID" style="whiteSpace=wrap;html=1;align=center;fontSize=23;fillColor=#dae8fc;strokeColor=#6c8ebf;" parent="118" vertex="1">
                    <mxGeometry x="70" width="70" height="40" as="geometry"/>
                </mxCell>
                <mxCell id="121" value="EX" style="whiteSpace=wrap;html=1;align=center;fontSize=23;fillColor=#d5e8d4;strokeColor=#82b366;" parent="118" vertex="1">
                    <mxGeometry x="140" width="70" height="40" as="geometry"/>
                </mxCell>
                <mxCell id="122" value="MEM" style="whiteSpace=wrap;html=1;align=center;fontSize=23;fillColor=#ffe6cc;strokeColor=#d79b00;" parent="118" vertex="1">
                    <mxGeometry x="210" width="70" height="40" as="geometry"/>
                </mxCell>
                <mxCell id="123" value="RW" style="whiteSpace=wrap;html=1;align=center;fontSize=23;fillColor=#f8cecc;strokeColor=#b85450;" parent="118" vertex="1">
                    <mxGeometry x="280" width="70" height="40" as="geometry"/>
                </mxCell>
                <mxCell id="128" value="" style="group" parent="1" vertex="1" connectable="0">
                    <mxGeometry x="110" y="430" width="350" height="40" as="geometry"/>
                </mxCell>
                <mxCell id="129" value="IF" style="whiteSpace=wrap;html=1;align=center;fontSize=23;fillColor=#f5f5f5;fontColor=#333333;strokeColor=#666666;" parent="128" vertex="1">
                    <mxGeometry width="70" height="40" as="geometry"/>
                </mxCell>
                <mxCell id="130" value="ID" style="whiteSpace=wrap;html=1;align=center;fontSize=23;fillColor=#dae8fc;strokeColor=#6c8ebf;" parent="128" vertex="1">
                    <mxGeometry x="70" width="70" height="40" as="geometry"/>
                </mxCell>
                <mxCell id="131" value="EX" style="whiteSpace=wrap;html=1;align=center;fontSize=23;fillColor=#d5e8d4;strokeColor=#82b366;" parent="128" vertex="1">
                    <mxGeometry x="140" width="70" height="40" as="geometry"/>
                </mxCell>
                <mxCell id="132" value="MEM" style="whiteSpace=wrap;html=1;align=center;fontSize=23;fillColor=#ffe6cc;strokeColor=#d79b00;" parent="128" vertex="1">
                    <mxGeometry x="210" width="70" height="40" as="geometry"/>
                </mxCell>
                <mxCell id="133" value="RW" style="whiteSpace=wrap;html=1;align=center;fontSize=23;fillColor=#f8cecc;strokeColor=#b85450;" parent="128" vertex="1">
                    <mxGeometry x="280" width="70" height="40" as="geometry"/>
                </mxCell>
                <mxCell id="145" value="" style="group;fillColor=#a20025;fontColor=#ffffff;strokeColor=#6F0000;" parent="1" vertex="1" connectable="0">
                    <mxGeometry x="394" y="-80" width="350" height="40" as="geometry"/>
                </mxCell>
                <mxCell id="146" value="IF" style="whiteSpace=wrap;html=1;align=center;fontSize=23;fillColor=#f5f5f5;fontColor=#333333;strokeColor=#666666;" parent="145" vertex="1">
                    <mxGeometry width="70" height="40" as="geometry"/>
                </mxCell>
                <mxCell id="147" value="ID" style="whiteSpace=wrap;html=1;align=center;fontSize=23;fillColor=#dae8fc;strokeColor=#6c8ebf;" parent="145" vertex="1">
                    <mxGeometry x="70" width="70" height="40" as="geometry"/>
                </mxCell>
                <mxCell id="148" value="EX" style="whiteSpace=wrap;html=1;align=center;fontSize=23;fillColor=#d5e8d4;strokeColor=#82b366;" parent="145" vertex="1">
                    <mxGeometry x="140" width="70" height="40" as="geometry"/>
                </mxCell>
                <mxCell id="149" value="MEM" style="whiteSpace=wrap;html=1;align=center;fontSize=23;fillColor=#ffe6cc;strokeColor=#d79b00;" parent="145" vertex="1">
                    <mxGeometry x="210" width="70" height="40" as="geometry"/>
                </mxCell>
                <mxCell id="150" value="RW" style="whiteSpace=wrap;html=1;align=center;fontSize=23;fillColor=#f8cecc;strokeColor=#b85450;" parent="145" vertex="1">
                    <mxGeometry x="280" width="70" height="40" as="geometry"/>
                </mxCell>
                <mxCell id="152" value="IF" style="whiteSpace=wrap;html=1;align=center;fontSize=23;fillColor=#a20025;fontColor=#ffffff;strokeColor=#6F0000;" parent="1" vertex="1">
                    <mxGeometry x="324" y="-80" width="70" height="40" as="geometry"/>
                </mxCell>
                <mxCell id="154" value="" style="group" parent="1" vertex="1" connectable="0">
                    <mxGeometry x="464" y="-40" width="350" height="40" as="geometry"/>
                </mxCell>
                <mxCell id="155" value="IF" style="whiteSpace=wrap;html=1;align=center;fontSize=23;fillColor=#f5f5f5;fontColor=#333333;strokeColor=#666666;" parent="154" vertex="1">
                    <mxGeometry width="70" height="40" as="geometry"/>
                </mxCell>
                <mxCell id="156" value="ID" style="whiteSpace=wrap;html=1;align=center;fontSize=23;fillColor=#dae8fc;strokeColor=#6c8ebf;" parent="154" vertex="1">
                    <mxGeometry x="70" width="70" height="40" as="geometry"/>
                </mxCell>
                <mxCell id="157" value="EX" style="whiteSpace=wrap;html=1;align=center;fontSize=23;fillColor=#d5e8d4;strokeColor=#82b366;" parent="154" vertex="1">
                    <mxGeometry x="140" width="70" height="40" as="geometry"/>
                </mxCell>
                <mxCell id="158" value="MEM" style="whiteSpace=wrap;html=1;align=center;fontSize=23;fillColor=#ffe6cc;strokeColor=#d79b00;" parent="154" vertex="1">
                    <mxGeometry x="210" width="70" height="40" as="geometry"/>
                </mxCell>
                <mxCell id="159" value="RW" style="whiteSpace=wrap;html=1;align=center;fontSize=23;fillColor=#f8cecc;strokeColor=#b85450;" parent="154" vertex="1">
                    <mxGeometry x="280" width="70" height="40" as="geometry"/>
                </mxCell>
                <mxCell id="160" value="EX(nop)" style="whiteSpace=wrap;html=1;align=center;fontSize=18;fillColor=#0050ef;strokeColor=#001DBC;fontColor=#ffffff;" parent="1" vertex="1">
                    <mxGeometry x="394" y="-40" width="70" height="40" as="geometry"/>
                </mxCell>
                <mxCell id="163" value="" style="group" parent="1" vertex="1" connectable="0">
                    <mxGeometry x="534" width="350" height="40" as="geometry"/>
                </mxCell>
                <mxCell id="164" value="IF" style="whiteSpace=wrap;html=1;align=center;fontSize=23;fillColor=#f5f5f5;fontColor=#333333;strokeColor=#666666;" parent="163" vertex="1">
                    <mxGeometry width="70" height="40" as="geometry"/>
                </mxCell>
                <mxCell id="165" value="ID" style="whiteSpace=wrap;html=1;align=center;fontSize=23;fillColor=#dae8fc;strokeColor=#6c8ebf;" parent="163" vertex="1">
                    <mxGeometry x="70" width="70" height="40" as="geometry"/>
                </mxCell>
                <mxCell id="166" value="EX" style="whiteSpace=wrap;html=1;align=center;fontSize=23;fillColor=#d5e8d4;strokeColor=#82b366;" parent="163" vertex="1">
                    <mxGeometry x="140" width="70" height="40" as="geometry"/>
                </mxCell>
                <mxCell id="167" value="MEM" style="whiteSpace=wrap;html=1;align=center;fontSize=23;fillColor=#ffe6cc;strokeColor=#d79b00;" parent="163" vertex="1">
                    <mxGeometry x="210" width="70" height="40" as="geometry"/>
                </mxCell>
                <mxCell id="168" value="RW" style="whiteSpace=wrap;html=1;align=center;fontSize=23;fillColor=#f8cecc;strokeColor=#b85450;" parent="163" vertex="1">
                    <mxGeometry x="280" width="70" height="40" as="geometry"/>
                </mxCell>
                <mxCell id="169" value="MEM&lt;br&gt;(nop)" style="whiteSpace=wrap;html=1;align=center;fontSize=18;fillColor=#0050ef;strokeColor=#001DBC;fontColor=#ffffff;" parent="1" vertex="1">
                    <mxGeometry x="464" width="70" height="40" as="geometry"/>
                </mxCell>
                <mxCell id="170" value="" style="group" parent="1" vertex="1" connectable="0">
                    <mxGeometry x="604" y="40" width="350" height="40" as="geometry"/>
                </mxCell>
                <mxCell id="171" value="IF" style="whiteSpace=wrap;html=1;align=center;fontSize=23;fillColor=#f5f5f5;fontColor=#333333;strokeColor=#666666;" parent="170" vertex="1">
                    <mxGeometry width="70" height="40" as="geometry"/>
                </mxCell>
                <mxCell id="172" value="ID" style="whiteSpace=wrap;html=1;align=center;fontSize=23;fillColor=#dae8fc;strokeColor=#6c8ebf;" parent="170" vertex="1">
                    <mxGeometry x="70" width="70" height="40" as="geometry"/>
                </mxCell>
                <mxCell id="173" value="EX" style="whiteSpace=wrap;html=1;align=center;fontSize=23;fillColor=#d5e8d4;strokeColor=#82b366;" parent="170" vertex="1">
                    <mxGeometry x="140" width="70" height="40" as="geometry"/>
                </mxCell>
                <mxCell id="174" value="MEM" style="whiteSpace=wrap;html=1;align=center;fontSize=23;fillColor=#ffe6cc;strokeColor=#d79b00;" parent="170" vertex="1">
                    <mxGeometry x="210" width="70" height="40" as="geometry"/>
                </mxCell>
                <mxCell id="175" value="RW" style="whiteSpace=wrap;html=1;align=center;fontSize=23;fillColor=#f8cecc;strokeColor=#b85450;" parent="170" vertex="1">
                    <mxGeometry x="280" width="70" height="40" as="geometry"/>
                </mxCell>
                <mxCell id="176" value="WB&lt;br&gt;(nop)" style="whiteSpace=wrap;html=1;align=center;fontSize=18;fillColor=#0050ef;strokeColor=#001DBC;fontColor=#ffffff;" parent="1" vertex="1">
                    <mxGeometry x="534" y="40" width="70" height="40" as="geometry"/>
                </mxCell>
                <mxCell id="177" value="addi a4 a4 10" style="text;html=1;strokeColor=none;fillColor=none;align=center;verticalAlign=middle;whiteSpace=wrap;rounded=0;fontSize=23;" parent="1" vertex="1">
                    <mxGeometry x="90" y="-115" width="150" height="30" as="geometry"/>
                </mxCell>
                <mxCell id="178" value="load-use 冒险" style="text;html=1;strokeColor=none;fillColor=none;align=center;verticalAlign=middle;whiteSpace=wrap;rounded=0;fontSize=33;" parent="1" vertex="1">
                    <mxGeometry x="40" y="-320" width="250" height="70" as="geometry"/>
                </mxCell>
                <mxCell id="183" value="" style="group" parent="1" vertex="1" connectable="0">
                    <mxGeometry x="600" y="710" width="350" height="40" as="geometry"/>
                </mxCell>
                <mxCell id="184" value="IF" style="whiteSpace=wrap;html=1;align=center;fontSize=23;fillColor=#f5f5f5;fontColor=#333333;strokeColor=#666666;" parent="183" vertex="1">
                    <mxGeometry width="70" height="40" as="geometry"/>
                </mxCell>
                <mxCell id="185" value="ID" style="whiteSpace=wrap;html=1;align=center;fontSize=23;fillColor=#dae8fc;strokeColor=#6c8ebf;" parent="183" vertex="1">
                    <mxGeometry x="70" width="70" height="40" as="geometry"/>
                </mxCell>
                <mxCell id="186" value="EX" style="whiteSpace=wrap;html=1;align=center;fontSize=23;fillColor=#d5e8d4;strokeColor=#82b366;" parent="183" vertex="1">
                    <mxGeometry x="140" width="70" height="40" as="geometry"/>
                </mxCell>
                <mxCell id="187" value="MEM" style="whiteSpace=wrap;html=1;align=center;fontSize=23;fillColor=#ffe6cc;strokeColor=#d79b00;" parent="183" vertex="1">
                    <mxGeometry x="210" width="70" height="40" as="geometry"/>
                </mxCell>
                <mxCell id="188" value="RW" style="whiteSpace=wrap;html=1;align=center;fontSize=23;fillColor=#f8cecc;strokeColor=#b85450;" parent="183" vertex="1">
                    <mxGeometry x="280" width="70" height="40" as="geometry"/>
                </mxCell>
                <mxCell id="189" value="" style="group" parent="1" vertex="1" connectable="0">
                    <mxGeometry x="670" y="750" width="350" height="40" as="geometry"/>
                </mxCell>
                <mxCell id="190" value="IF" style="whiteSpace=wrap;html=1;align=center;fontSize=23;fillColor=#f5f5f5;fontColor=#333333;strokeColor=#666666;" parent="189" vertex="1">
                    <mxGeometry width="70" height="40" as="geometry"/>
                </mxCell>
                <mxCell id="191" value="ID" style="whiteSpace=wrap;html=1;align=center;fontSize=23;fillColor=#dae8fc;strokeColor=#6c8ebf;" parent="189" vertex="1">
                    <mxGeometry x="70" width="70" height="40" as="geometry"/>
                </mxCell>
                <mxCell id="192" value="EX" style="whiteSpace=wrap;html=1;align=center;fontSize=23;fillColor=#d5e8d4;strokeColor=#82b366;" parent="189" vertex="1">
                    <mxGeometry x="140" width="70" height="40" as="geometry"/>
                </mxCell>
                <mxCell id="193" value="MEM" style="whiteSpace=wrap;html=1;align=center;fontSize=23;fillColor=#ffe6cc;strokeColor=#d79b00;" parent="189" vertex="1">
                    <mxGeometry x="210" width="70" height="40" as="geometry"/>
                </mxCell>
                <mxCell id="194" value="RW" style="whiteSpace=wrap;html=1;align=center;fontSize=23;fillColor=#f8cecc;strokeColor=#b85450;" parent="189" vertex="1">
                    <mxGeometry x="280" width="70" height="40" as="geometry"/>
                </mxCell>
                <mxCell id="195" value="&lt;h1&gt;&lt;span style=&quot;font-size: 33px ; font-weight: 400 ; text-align: center&quot;&gt;load-use 冒险&lt;/span&gt;&lt;br&gt;&lt;/h1&gt;&lt;p&gt;1. PC_REG 保持&lt;/p&gt;&lt;p&gt;2. IF/ID 保持&lt;/p&gt;&lt;p&gt;2.ID/EX flush&lt;/p&gt;" style="text;html=1;strokeColor=none;fillColor=none;spacing=5;spacingTop=-20;whiteSpace=wrap;overflow=hidden;rounded=0;" parent="1" vertex="1">
                    <mxGeometry x="500" y="-355" width="230" height="155" as="geometry"/>
                </mxCell>
                <mxCell id="196" value="&lt;h1&gt;&lt;span style=&quot;font-size: 33px ; font-weight: 400 ; text-align: center&quot;&gt;分支 冒险&lt;/span&gt;&lt;br&gt;&lt;/h1&gt;&lt;p&gt;1. ID/EX flush&lt;/p&gt;&lt;p&gt;2. IF/ID flush&lt;/p&gt;" style="text;html=1;strokeColor=none;fillColor=none;spacing=5;spacingTop=-20;whiteSpace=wrap;overflow=hidden;rounded=0;" parent="1" vertex="1">
                    <mxGeometry x="620" y="402.5" width="230" height="117.5" as="geometry"/>
                </mxCell>
                <mxCell id="313" value="" style="group" parent="1" vertex="1" connectable="0">
                    <mxGeometry x="1170" y="-190" width="350" height="40" as="geometry"/>
                </mxCell>
                <mxCell id="314" value="IF" style="whiteSpace=wrap;html=1;align=center;fontSize=23;fillColor=#f5f5f5;fontColor=#333333;strokeColor=#666666;" parent="313" vertex="1">
                    <mxGeometry width="70" height="40" as="geometry"/>
                </mxCell>
                <mxCell id="315" value="ID" style="whiteSpace=wrap;html=1;align=center;fontSize=23;fillColor=#dae8fc;strokeColor=#6c8ebf;" parent="313" vertex="1">
                    <mxGeometry x="70" width="70" height="40" as="geometry"/>
                </mxCell>
                <mxCell id="316" value="EX" style="whiteSpace=wrap;html=1;align=center;fontSize=23;fillColor=#d5e8d4;strokeColor=#82b366;" parent="313" vertex="1">
                    <mxGeometry x="140" width="70" height="40" as="geometry"/>
                </mxCell>
                <mxCell id="317" value="MEM" style="whiteSpace=wrap;html=1;align=center;fontSize=23;fillColor=#ffe6cc;strokeColor=#d79b00;" parent="313" vertex="1">
                    <mxGeometry x="210" width="70" height="40" as="geometry"/>
                </mxCell>
                <mxCell id="318" value="RW" style="whiteSpace=wrap;html=1;align=center;fontSize=23;fillColor=#f8cecc;strokeColor=#b85450;" parent="313" vertex="1">
                    <mxGeometry x="280" width="70" height="40" as="geometry"/>
                </mxCell>
                <mxCell id="319" value="" style="group" parent="1" vertex="1" connectable="0">
                    <mxGeometry x="1240" y="-150" width="350" height="40" as="geometry"/>
                </mxCell>
                <mxCell id="320" value="IF" style="whiteSpace=wrap;html=1;align=center;fontSize=23;fillColor=#f5f5f5;fontColor=#333333;strokeColor=#666666;" parent="319" vertex="1">
                    <mxGeometry width="70" height="40" as="geometry"/>
                </mxCell>
                <mxCell id="321" value="ID" style="whiteSpace=wrap;html=1;align=center;fontSize=23;fillColor=#dae8fc;strokeColor=#6c8ebf;" parent="319" vertex="1">
                    <mxGeometry x="70" width="70" height="40" as="geometry"/>
                </mxCell>
                <mxCell id="322" value="EX&lt;br style=&quot;font-size: 17px;&quot;&gt;mul0" style="whiteSpace=wrap;html=1;align=center;fontSize=17;fillColor=#d5e8d4;strokeColor=#82b366;" parent="319" vertex="1">
                    <mxGeometry x="140" width="70" height="40" as="geometry"/>
                </mxCell>
                <mxCell id="324" value="RW" style="whiteSpace=wrap;html=1;align=center;fontSize=23;fillColor=#f8cecc;strokeColor=#b85450;" parent="319" vertex="1">
                    <mxGeometry x="280" width="70" height="40" as="geometry"/>
                </mxCell>
                <mxCell id="359" value="MEM&lt;br&gt;(nop)" style="whiteSpace=wrap;html=1;align=center;fontSize=18;fillColor=#0050ef;strokeColor=#001DBC;fontColor=#ffffff;" parent="319" vertex="1">
                    <mxGeometry x="210" width="70" height="40" as="geometry"/>
                </mxCell>
                <mxCell id="325" value="" style="group" parent="1" vertex="1" connectable="0">
                    <mxGeometry x="1100" y="-230" width="350" height="40" as="geometry"/>
                </mxCell>
                <mxCell id="326" value="IF" style="whiteSpace=wrap;html=1;align=center;fontSize=23;fillColor=#f5f5f5;fontColor=#333333;strokeColor=#666666;" parent="325" vertex="1">
                    <mxGeometry width="70" height="40" as="geometry"/>
                </mxCell>
                <mxCell id="327" value="ID" style="whiteSpace=wrap;html=1;align=center;fontSize=23;fillColor=#dae8fc;strokeColor=#6c8ebf;" parent="325" vertex="1">
                    <mxGeometry x="70" width="80" height="40" as="geometry"/>
                </mxCell>
                <mxCell id="328" value="EX" style="whiteSpace=wrap;html=1;align=center;fontSize=23;fillColor=#d5e8d4;strokeColor=#82b366;" parent="325" vertex="1">
                    <mxGeometry x="140" width="70" height="40" as="geometry"/>
                </mxCell>
                <mxCell id="329" value="MEM" style="whiteSpace=wrap;html=1;align=center;fontSize=23;fillColor=#ffe6cc;strokeColor=#d79b00;" parent="325" vertex="1">
                    <mxGeometry x="210" width="70" height="40" as="geometry"/>
                </mxCell>
                <mxCell id="330" value="RW" style="whiteSpace=wrap;html=1;align=center;fontSize=23;fillColor=#f8cecc;strokeColor=#b85450;" parent="325" vertex="1">
                    <mxGeometry x="280" width="70" height="40" as="geometry"/>
                </mxCell>
                <mxCell id="331" value="li a3 10" style="text;html=1;strokeColor=none;fillColor=none;align=center;verticalAlign=middle;whiteSpace=wrap;rounded=0;fontSize=23;" parent="1" vertex="1">
                    <mxGeometry x="1070" y="-185" width="90" height="30" as="geometry"/>
                </mxCell>
                <mxCell id="332" value="li a3 10" style="text;html=1;strokeColor=none;fillColor=none;align=center;verticalAlign=middle;whiteSpace=wrap;rounded=0;fontSize=23;" parent="1" vertex="1">
                    <mxGeometry x="1100" y="-140" width="120" height="30" as="geometry"/>
                </mxCell>
                <mxCell id="334" value="IF" style="whiteSpace=wrap;html=1;align=center;fontSize=23;fillColor=#f5f5f5;fontColor=#333333;strokeColor=#666666;" parent="1" vertex="1">
                    <mxGeometry x="1310" y="-110" width="70" height="40" as="geometry"/>
                </mxCell>
                <mxCell id="335" value="ID" style="whiteSpace=wrap;html=1;align=center;fontSize=23;fillColor=#dae8fc;strokeColor=#6c8ebf;" parent="1" vertex="1">
                    <mxGeometry x="1380" y="-110" width="70" height="40" as="geometry"/>
                </mxCell>
                <mxCell id="336" value="&lt;span style=&quot;font-size: 17px&quot;&gt;EX&lt;/span&gt;&lt;br style=&quot;font-size: 17px&quot;&gt;&lt;span style=&quot;font-size: 17px&quot;&gt;mul1&lt;/span&gt;" style="whiteSpace=wrap;html=1;align=center;fontSize=17;fillColor=#d5e8d4;strokeColor=#82b366;" parent="1" vertex="1">
                    <mxGeometry x="1450" y="-110" width="70" height="40" as="geometry"/>
                </mxCell>
                <mxCell id="338" value="RW" style="whiteSpace=wrap;html=1;align=center;fontSize=23;fillColor=#f8cecc;strokeColor=#b85450;" parent="1" vertex="1">
                    <mxGeometry x="1590" y="-110" width="70" height="40" as="geometry"/>
                </mxCell>
                <mxCell id="346" value="" style="group;fontSize=11;" parent="1" vertex="1" connectable="0">
                    <mxGeometry x="1380" y="-70" width="350" height="40" as="geometry"/>
                </mxCell>
                <mxCell id="347" value="IF" style="whiteSpace=wrap;html=1;align=center;fontSize=23;fillColor=#f5f5f5;fontColor=#333333;strokeColor=#666666;" parent="346" vertex="1">
                    <mxGeometry width="70" height="40" as="geometry"/>
                </mxCell>
                <mxCell id="348" value="ID" style="whiteSpace=wrap;html=1;align=center;fontSize=23;fillColor=#a20025;strokeColor=#6F0000;fontColor=#ffffff;" parent="346" vertex="1">
                    <mxGeometry x="70" width="70" height="40" as="geometry"/>
                </mxCell>
                <mxCell id="349" value="&lt;span style=&quot;font-size: 17px&quot;&gt;EX&lt;/span&gt;&lt;br style=&quot;font-size: 17px&quot;&gt;&lt;span style=&quot;font-size: 17px&quot;&gt;mul2&lt;/span&gt;" style="whiteSpace=wrap;html=1;align=center;fontSize=17;fillColor=#d5e8d4;strokeColor=#82b366;" parent="346" vertex="1">
                    <mxGeometry x="140" width="70" height="40" as="geometry"/>
                </mxCell>
                <mxCell id="351" value="RW" style="whiteSpace=wrap;html=1;align=center;fontSize=23;fillColor=#f8cecc;strokeColor=#b85450;" parent="346" vertex="1">
                    <mxGeometry x="280" width="70" height="40" as="geometry"/>
                </mxCell>
                <mxCell id="401" value="MEM&lt;br&gt;(nop)" style="whiteSpace=wrap;html=1;align=center;fontSize=18;fillColor=#0050ef;strokeColor=#001DBC;fontColor=#ffffff;" parent="346" vertex="1">
                    <mxGeometry x="210" width="70" height="40" as="geometry"/>
                </mxCell>
                <mxCell id="352" value="EX(nop)" style="whiteSpace=wrap;html=1;align=center;fontSize=18;fillColor=#0050ef;strokeColor=#001DBC;fontColor=#ffffff;" parent="1" vertex="1">
                    <mxGeometry x="1340" y="110" width="70" height="40" as="geometry"/>
                </mxCell>
                <mxCell id="353" value="" style="group" parent="1" vertex="1" connectable="0">
                    <mxGeometry x="1450" y="-30" width="350" height="40" as="geometry"/>
                </mxCell>
                <mxCell id="354" value="IF" style="whiteSpace=wrap;html=1;align=center;fontSize=23;fillColor=#a20025;fontColor=#ffffff;strokeColor=#6F0000;" parent="353" vertex="1">
                    <mxGeometry width="70" height="40" as="geometry"/>
                </mxCell>
                <mxCell id="355" value="ID" style="whiteSpace=wrap;html=1;align=center;fontSize=23;fillColor=#a20025;strokeColor=#6F0000;fontColor=#ffffff;" parent="353" vertex="1">
                    <mxGeometry x="70" width="70" height="40" as="geometry"/>
                </mxCell>
                <mxCell id="358" value="RW" style="whiteSpace=wrap;html=1;align=center;fontSize=23;fillColor=#f8cecc;strokeColor=#b85450;" parent="353" vertex="1">
                    <mxGeometry x="280" width="70" height="40" as="geometry"/>
                </mxCell>
                <mxCell id="383" value="&lt;span style=&quot;font-size: 17px&quot;&gt;EX&lt;/span&gt;&lt;br style=&quot;font-size: 17px&quot;&gt;&lt;span style=&quot;font-size: 17px&quot;&gt;mul3&lt;/span&gt;" style="whiteSpace=wrap;html=1;align=center;fontSize=17;fillColor=#d5e8d4;strokeColor=#82b366;" parent="353" vertex="1">
                    <mxGeometry x="140" width="70" height="40" as="geometry"/>
                </mxCell>
                <mxCell id="402" value="MEM&lt;br&gt;(nop)" style="whiteSpace=wrap;html=1;align=center;fontSize=18;fillColor=#0050ef;strokeColor=#001DBC;fontColor=#ffffff;" parent="353" vertex="1">
                    <mxGeometry x="210" width="70" height="40" as="geometry"/>
                </mxCell>
                <mxCell id="360" value="" style="group" parent="1" vertex="1" connectable="0">
                    <mxGeometry x="1520" y="10" width="350" height="40" as="geometry"/>
                </mxCell>
                <mxCell id="361" value="IF" style="whiteSpace=wrap;html=1;align=center;fontSize=23;fillColor=#a20025;fontColor=#ffffff;strokeColor=#6F0000;" parent="360" vertex="1">
                    <mxGeometry width="70" height="40" as="geometry"/>
                </mxCell>
                <mxCell id="362" value="ID" style="whiteSpace=wrap;html=1;align=center;fontSize=23;fillColor=#a20025;strokeColor=#6F0000;fontColor=#ffffff;" parent="360" vertex="1">
                    <mxGeometry x="70" width="70" height="40" as="geometry"/>
                </mxCell>
                <mxCell id="365" value="RW" style="whiteSpace=wrap;html=1;align=center;fontSize=23;fillColor=#f8cecc;strokeColor=#b85450;" parent="360" vertex="1">
                    <mxGeometry x="280" width="70" height="40" as="geometry"/>
                </mxCell>
                <mxCell id="385" value="&lt;span style=&quot;font-size: 17px&quot;&gt;EX&lt;/span&gt;&lt;br style=&quot;font-size: 17px&quot;&gt;&lt;span style=&quot;font-size: 17px&quot;&gt;mul4&lt;/span&gt;" style="whiteSpace=wrap;html=1;align=center;fontSize=17;fillColor=#d5e8d4;strokeColor=#82b366;" parent="360" vertex="1">
                    <mxGeometry x="140" width="70" height="40" as="geometry"/>
                </mxCell>
                <mxCell id="403" value="MEM&lt;br&gt;(nop)" style="whiteSpace=wrap;html=1;align=center;fontSize=18;fillColor=#0050ef;strokeColor=#001DBC;fontColor=#ffffff;" parent="360" vertex="1">
                    <mxGeometry x="210" width="70" height="40" as="geometry"/>
                </mxCell>
                <mxCell id="366" value="WB&lt;br&gt;(nop)" style="whiteSpace=wrap;html=1;align=center;fontSize=18;fillColor=#0050ef;strokeColor=#001DBC;fontColor=#ffffff;" parent="1" vertex="1">
                    <mxGeometry x="1260" y="110" width="70" height="40" as="geometry"/>
                </mxCell>
                <mxCell id="367" value="mul a4 a4 10" style="text;html=1;strokeColor=none;fillColor=none;align=center;verticalAlign=middle;whiteSpace=wrap;rounded=0;fontSize=23;" parent="1" vertex="1">
                    <mxGeometry x="1146" y="-105" width="150" height="30" as="geometry"/>
                </mxCell>
                <mxCell id="369" value="&lt;h1&gt;&lt;span style=&quot;font-size: 33px ; font-weight: 400 ; text-align: center&quot;&gt;乘除法 冒险&lt;/span&gt;&lt;br&gt;&lt;/h1&gt;&lt;p&gt;1. PC_REG 保持&lt;/p&gt;&lt;p&gt;2. IF/ID 保持&lt;/p&gt;&lt;p&gt;2.EX/MEM flush&lt;/p&gt;" style="text;html=1;strokeColor=none;fillColor=none;spacing=5;spacingTop=-20;whiteSpace=wrap;overflow=hidden;rounded=0;" parent="1" vertex="1">
                    <mxGeometry x="1680" y="-257.5" width="230" height="155" as="geometry"/>
                </mxCell>
                <mxCell id="371" value="" style="group" parent="1" vertex="1" connectable="0">
                    <mxGeometry x="1590" y="50" width="350" height="40" as="geometry"/>
                </mxCell>
                <mxCell id="372" value="IF" style="whiteSpace=wrap;html=1;align=center;fontSize=23;fillColor=#a20025;fontColor=#ffffff;strokeColor=#6F0000;" parent="371" vertex="1">
                    <mxGeometry width="70" height="40" as="geometry"/>
                </mxCell>
                <mxCell id="373" value="ID" style="whiteSpace=wrap;html=1;align=center;fontSize=23;fillColor=#a20025;strokeColor=#6F0000;fontColor=#ffffff;" parent="371" vertex="1">
                    <mxGeometry x="70" width="70" height="40" as="geometry"/>
                </mxCell>
                <mxCell id="375" value="MEM" style="whiteSpace=wrap;html=1;align=center;fontSize=23;fillColor=#ffe6cc;strokeColor=#d79b00;" parent="371" vertex="1">
                    <mxGeometry x="210" width="70" height="40" as="geometry"/>
                </mxCell>
                <mxCell id="376" value="RW" style="whiteSpace=wrap;html=1;align=center;fontSize=23;fillColor=#f8cecc;strokeColor=#b85450;" parent="371" vertex="1">
                    <mxGeometry x="280" width="70" height="40" as="geometry"/>
                </mxCell>
                <mxCell id="384" value="&lt;span style=&quot;font-size: 17px&quot;&gt;EX&lt;/span&gt;&lt;br style=&quot;font-size: 17px&quot;&gt;&lt;span style=&quot;font-size: 17px&quot;&gt;mul5&lt;/span&gt;" style="whiteSpace=wrap;html=1;align=center;fontSize=17;fillColor=#d5e8d4;strokeColor=#82b366;" parent="371" vertex="1">
                    <mxGeometry x="140" width="70" height="40" as="geometry"/>
                </mxCell>
                <mxCell id="377" value="" style="group" parent="1" vertex="1" connectable="0">
                    <mxGeometry x="1660" y="90" width="350" height="40" as="geometry"/>
                </mxCell>
                <mxCell id="378" value="IF" style="whiteSpace=wrap;html=1;align=center;fontSize=23;fillColor=#a20025;fontColor=#ffffff;strokeColor=#6F0000;" parent="377" vertex="1">
                    <mxGeometry width="70" height="40" as="geometry"/>
                </mxCell>
                <mxCell id="379" value="ID" style="whiteSpace=wrap;html=1;align=center;fontSize=23;fillColor=#a20025;strokeColor=#6F0000;fontColor=#ffffff;" parent="377" vertex="1">
                    <mxGeometry x="70" width="70" height="40" as="geometry"/>
                </mxCell>
                <mxCell id="380" value="EX" style="whiteSpace=wrap;html=1;align=center;fontSize=23;fillColor=#d5e8d4;strokeColor=#82b366;" parent="377" vertex="1">
                    <mxGeometry x="140" width="70" height="40" as="geometry"/>
                </mxCell>
                <mxCell id="381" value="MEM" style="whiteSpace=wrap;html=1;align=center;fontSize=23;fillColor=#ffe6cc;strokeColor=#d79b00;" parent="377" vertex="1">
                    <mxGeometry x="210" width="70" height="40" as="geometry"/>
                </mxCell>
                <mxCell id="382" value="RW" style="whiteSpace=wrap;html=1;align=center;fontSize=23;fillColor=#f8cecc;strokeColor=#b85450;" parent="377" vertex="1">
                    <mxGeometry x="280" width="70" height="40" as="geometry"/>
                </mxCell>
                <mxCell id="386" value="" style="group" parent="1" vertex="1" connectable="0">
                    <mxGeometry x="1730" y="130" width="350" height="40" as="geometry"/>
                </mxCell>
                <mxCell id="387" value="IF" style="whiteSpace=wrap;html=1;align=center;fontSize=23;fillColor=#a20025;fontColor=#ffffff;strokeColor=#6F0000;" parent="386" vertex="1">
                    <mxGeometry width="70" height="40" as="geometry"/>
                </mxCell>
                <mxCell id="389" value="EX" style="whiteSpace=wrap;html=1;align=center;fontSize=23;fillColor=#d5e8d4;strokeColor=#82b366;" parent="386" vertex="1">
                    <mxGeometry x="140" width="70" height="40" as="geometry"/>
                </mxCell>
                <mxCell id="390" value="MEM" style="whiteSpace=wrap;html=1;align=center;fontSize=23;fillColor=#ffe6cc;strokeColor=#d79b00;" parent="386" vertex="1">
                    <mxGeometry x="210" width="70" height="40" as="geometry"/>
                </mxCell>
                <mxCell id="391" value="RW" style="whiteSpace=wrap;html=1;align=center;fontSize=23;fillColor=#f8cecc;strokeColor=#b85450;" parent="386" vertex="1">
                    <mxGeometry x="280" width="70" height="40" as="geometry"/>
                </mxCell>
                <mxCell id="392" value="ID" style="whiteSpace=wrap;html=1;align=center;fontSize=23;fillColor=#dae8fc;strokeColor=#6c8ebf;" parent="386" vertex="1">
                    <mxGeometry x="70" width="70" height="40" as="geometry"/>
                </mxCell>
                <mxCell id="394" value="" style="group" parent="1" vertex="1" connectable="0">
                    <mxGeometry x="1800" y="170" width="350" height="40" as="geometry"/>
                </mxCell>
                <mxCell id="395" value="IF" style="whiteSpace=wrap;html=1;align=center;fontSize=23;fillColor=#f5f5f5;fontColor=#333333;strokeColor=#666666;" parent="394" vertex="1">
                    <mxGeometry width="70" height="40" as="geometry"/>
                </mxCell>
                <mxCell id="396" value="ID" style="whiteSpace=wrap;html=1;align=center;fontSize=23;fillColor=#dae8fc;strokeColor=#6c8ebf;" parent="394" vertex="1">
                    <mxGeometry x="70" width="80" height="40" as="geometry"/>
                </mxCell>
                <mxCell id="397" value="EX" style="whiteSpace=wrap;html=1;align=center;fontSize=23;fillColor=#d5e8d4;strokeColor=#82b366;" parent="394" vertex="1">
                    <mxGeometry x="140" width="70" height="40" as="geometry"/>
                </mxCell>
                <mxCell id="398" value="MEM" style="whiteSpace=wrap;html=1;align=center;fontSize=23;fillColor=#ffe6cc;strokeColor=#d79b00;" parent="394" vertex="1">
                    <mxGeometry x="210" width="70" height="40" as="geometry"/>
                </mxCell>
                <mxCell id="399" value="RW" style="whiteSpace=wrap;html=1;align=center;fontSize=23;fillColor=#f8cecc;strokeColor=#b85450;" parent="394" vertex="1">
                    <mxGeometry x="280" width="70" height="40" as="geometry"/>
                </mxCell>
                <mxCell id="400" value="MEM&lt;br&gt;(nop)" style="whiteSpace=wrap;html=1;align=center;fontSize=18;fillColor=#0050ef;strokeColor=#001DBC;fontColor=#ffffff;" parent="1" vertex="1">
                    <mxGeometry x="1520" y="-110" width="70" height="40" as="geometry"/>
                </mxCell>
                <mxCell id="406" value="异常情况汇总" style="text;strokeColor=none;fillColor=none;html=1;fontSize=24;fontStyle=1;verticalAlign=middle;align=center;" parent="1" vertex="1">
                    <mxGeometry x="1400" y="300" width="160" height="40" as="geometry"/>
                </mxCell>
                <mxCell id="407" value="&lt;ul&gt;&lt;li&gt;Value 1&lt;/li&gt;&lt;li&gt;Value 2&lt;/li&gt;&lt;li&gt;Value 3&lt;/li&gt;&lt;/ul&gt;" style="text;strokeColor=none;fillColor=none;html=1;whiteSpace=wrap;verticalAlign=middle;overflow=hidden;fontSize=22;" parent="1" vertex="1">
                    <mxGeometry x="1380" y="340" width="190" height="137.5" as="geometry"/>
                </mxCell>
                <mxCell id="408" value="取指阶段" style="text;strokeColor=none;fillColor=none;html=1;fontSize=15;fontStyle=1;verticalAlign=middle;align=center;" parent="1" vertex="1">
                    <mxGeometry x="1400" y="350" width="80" height="20" as="geometry"/>
                </mxCell>
                <mxCell id="409" value="" style="group" parent="1" vertex="1" connectable="0">
                    <mxGeometry x="150" y="1097.5" width="350" height="40" as="geometry"/>
                </mxCell>
                <mxCell id="410" value="IF" style="whiteSpace=wrap;html=1;align=center;fontSize=23;fillColor=#f5f5f5;fontColor=#333333;strokeColor=#666666;" parent="409" vertex="1">
                    <mxGeometry width="70" height="40" as="geometry"/>
                </mxCell>
                <mxCell id="411" value="ID" style="whiteSpace=wrap;html=1;align=center;fontSize=23;fillColor=#dae8fc;strokeColor=#6c8ebf;" parent="409" vertex="1">
                    <mxGeometry x="70" width="70" height="40" as="geometry"/>
                </mxCell>
                <mxCell id="412" value="EX" style="whiteSpace=wrap;html=1;align=center;fontSize=23;fillColor=#d5e8d4;strokeColor=#82b366;" parent="409" vertex="1">
                    <mxGeometry x="140" width="70" height="40" as="geometry"/>
                </mxCell>
                <mxCell id="413" value="MEM" style="whiteSpace=wrap;html=1;align=center;fontSize=23;fillColor=#ffe6cc;strokeColor=#d79b00;" parent="409" vertex="1">
                    <mxGeometry x="210" width="70" height="40" as="geometry"/>
                </mxCell>
                <mxCell id="414" value="RW" style="whiteSpace=wrap;html=1;align=center;fontSize=23;fillColor=#f8cecc;strokeColor=#b85450;" parent="409" vertex="1">
                    <mxGeometry x="280" width="70" height="40" as="geometry"/>
                </mxCell>
                <mxCell id="416" value="0x80000010 ecall" style="text;html=1;strokeColor=none;fillColor=none;align=center;verticalAlign=middle;whiteSpace=wrap;rounded=0;fontSize=23;" parent="1" vertex="1">
                    <mxGeometry x="-20" y="1142.5" width="250" height="30" as="geometry"/>
                </mxCell>
                <mxCell id="417" value="" style="group" parent="1" vertex="1" connectable="0">
                    <mxGeometry x="220" y="1137.5" width="350" height="40" as="geometry"/>
                </mxCell>
                <mxCell id="418" value="IF" style="whiteSpace=wrap;html=1;align=center;fontSize=23;fillColor=#f5f5f5;fontColor=#333333;strokeColor=#666666;" parent="417" vertex="1">
                    <mxGeometry width="70" height="40" as="geometry"/>
                </mxCell>
                <mxCell id="419" value="ID" style="whiteSpace=wrap;html=1;align=center;fontSize=23;fillColor=#dae8fc;strokeColor=#6c8ebf;" parent="417" vertex="1">
                    <mxGeometry x="70" width="70" height="40" as="geometry"/>
                </mxCell>
                <mxCell id="420" value="EX" style="whiteSpace=wrap;html=1;align=center;fontSize=23;fillColor=#d5e8d4;strokeColor=#82b366;" parent="417" vertex="1">
                    <mxGeometry x="140" width="70" height="40" as="geometry"/>
                </mxCell>
                <mxCell id="421" value="MEM" style="whiteSpace=wrap;html=1;align=center;fontSize=23;fillColor=#ffe6cc;strokeColor=#d79b00;" parent="417" vertex="1">
                    <mxGeometry x="210" width="70" height="40" as="geometry"/>
                </mxCell>
                <mxCell id="422" value="RW" style="whiteSpace=wrap;html=1;align=center;fontSize=23;fillColor=#f8cecc;strokeColor=#b85450;" parent="417" vertex="1">
                    <mxGeometry x="280" width="70" height="40" as="geometry"/>
                </mxCell>
                <mxCell id="436" value="" style="group" parent="1" vertex="1" connectable="0">
                    <mxGeometry x="290" y="1177.5" width="350" height="40" as="geometry"/>
                </mxCell>
                <mxCell id="437" value="IF" style="whiteSpace=wrap;html=1;align=center;fontSize=23;fillColor=#f5f5f5;fontColor=#333333;strokeColor=#666666;" parent="436" vertex="1">
                    <mxGeometry width="70" height="40" as="geometry"/>
                </mxCell>
                <mxCell id="438" value="ID" style="whiteSpace=wrap;html=1;align=center;fontSize=23;fillColor=#dae8fc;strokeColor=#6c8ebf;" parent="436" vertex="1">
                    <mxGeometry x="70" width="70" height="40" as="geometry"/>
                </mxCell>
                <mxCell id="439" value="EX" style="whiteSpace=wrap;html=1;align=center;fontSize=23;fillColor=#d5e8d4;strokeColor=#82b366;" parent="436" vertex="1">
                    <mxGeometry x="140" width="70" height="40" as="geometry"/>
                </mxCell>
                <mxCell id="473" value="MEM&lt;br style=&quot;font-size: 17px;&quot;&gt;(nop)" style="whiteSpace=wrap;html=1;align=center;fontSize=17;fillColor=#a20025;fontColor=#ffffff;strokeColor=#6F0000;" parent="436" vertex="1">
                    <mxGeometry x="210" width="70" height="40" as="geometry"/>
                </mxCell>
                <mxCell id="495" value="WB&lt;br style=&quot;font-size: 17px;&quot;&gt;(nop)" style="whiteSpace=wrap;html=1;align=center;fontSize=17;fillColor=#a20025;fontColor=#ffffff;strokeColor=#6F0000;" parent="436" vertex="1">
                    <mxGeometry x="280" width="70" height="40" as="geometry"/>
                </mxCell>
                <mxCell id="442" value="" style="group" parent="1" vertex="1" connectable="0">
                    <mxGeometry x="360" y="1217.5" width="350" height="40" as="geometry"/>
                </mxCell>
                <mxCell id="443" value="IF" style="whiteSpace=wrap;html=1;align=center;fontSize=23;fillColor=#f5f5f5;fontColor=#333333;strokeColor=#666666;" parent="442" vertex="1">
                    <mxGeometry width="70" height="40" as="geometry"/>
                </mxCell>
                <mxCell id="444" value="ID" style="whiteSpace=wrap;html=1;align=center;fontSize=23;fillColor=#dae8fc;strokeColor=#6c8ebf;" parent="442" vertex="1">
                    <mxGeometry x="70" width="70" height="40" as="geometry"/>
                </mxCell>
                <mxCell id="474" value="EX&lt;br style=&quot;font-size: 17px;&quot;&gt;（nop）" style="whiteSpace=wrap;html=1;align=center;fontSize=17;fillColor=#a20025;fontColor=#ffffff;strokeColor=#6F0000;" parent="442" vertex="1">
                    <mxGeometry x="140" width="70" height="40" as="geometry"/>
                </mxCell>
                <mxCell id="496" value="MEM&lt;br style=&quot;font-size: 17px;&quot;&gt;(nop)" style="whiteSpace=wrap;html=1;align=center;fontSize=17;fillColor=#a20025;fontColor=#ffffff;strokeColor=#6F0000;" parent="442" vertex="1">
                    <mxGeometry x="210" width="70" height="40" as="geometry"/>
                </mxCell>
                <mxCell id="497" value="WB&lt;br style=&quot;font-size: 17px;&quot;&gt;(nop)" style="whiteSpace=wrap;html=1;align=center;fontSize=17;fillColor=#a20025;fontColor=#ffffff;strokeColor=#6F0000;" parent="442" vertex="1">
                    <mxGeometry x="280" width="70" height="40" as="geometry"/>
                </mxCell>
                <mxCell id="448" value="" style="group" parent="1" vertex="1" connectable="0">
                    <mxGeometry x="80" y="1057.5" width="350" height="40" as="geometry"/>
                </mxCell>
                <mxCell id="449" value="IF" style="whiteSpace=wrap;html=1;align=center;fontSize=23;fillColor=#f5f5f5;fontColor=#333333;strokeColor=#666666;" parent="448" vertex="1">
                    <mxGeometry width="70" height="40" as="geometry"/>
                </mxCell>
                <mxCell id="450" value="ID" style="whiteSpace=wrap;html=1;align=center;fontSize=23;fillColor=#dae8fc;strokeColor=#6c8ebf;" parent="448" vertex="1">
                    <mxGeometry x="70" width="70" height="40" as="geometry"/>
                </mxCell>
                <mxCell id="451" value="EX" style="whiteSpace=wrap;html=1;align=center;fontSize=23;fillColor=#d5e8d4;strokeColor=#82b366;" parent="448" vertex="1">
                    <mxGeometry x="140" width="70" height="40" as="geometry"/>
                </mxCell>
                <mxCell id="452" value="MEM" style="whiteSpace=wrap;html=1;align=center;fontSize=23;fillColor=#ffe6cc;strokeColor=#d79b00;" parent="448" vertex="1">
                    <mxGeometry x="210" width="70" height="40" as="geometry"/>
                </mxCell>
                <mxCell id="453" value="RW" style="whiteSpace=wrap;html=1;align=center;fontSize=23;fillColor=#f8cecc;strokeColor=#b85450;" parent="448" vertex="1">
                    <mxGeometry x="280" width="70" height="40" as="geometry"/>
                </mxCell>
                <mxCell id="454" value="" style="group" parent="1" vertex="1" connectable="0">
                    <mxGeometry x="430" y="1257.5" width="350" height="42.5" as="geometry"/>
                </mxCell>
                <mxCell id="455" value="IF" style="whiteSpace=wrap;html=1;align=center;fontSize=23;fillColor=#f5f5f5;fontColor=#333333;strokeColor=#666666;" parent="454" vertex="1">
                    <mxGeometry width="70" height="40" as="geometry"/>
                </mxCell>
                <mxCell id="475" value="ID&lt;br style=&quot;font-size: 17px;&quot;&gt;(nop)" style="whiteSpace=wrap;html=1;align=center;fontSize=17;fillColor=#a20025;fontColor=#ffffff;strokeColor=#6F0000;" parent="454" vertex="1">
                    <mxGeometry x="70" y="2.5" width="70" height="40" as="geometry"/>
                </mxCell>
                <mxCell id="476" value="ID&lt;br style=&quot;font-size: 17px;&quot;&gt;(nop)" style="whiteSpace=wrap;html=1;align=center;fontSize=17;fillColor=#a20025;fontColor=#ffffff;strokeColor=#6F0000;" parent="454" vertex="1">
                    <mxGeometry x="70" width="70" height="40" as="geometry"/>
                </mxCell>
                <mxCell id="498" value="MEM&lt;br style=&quot;font-size: 17px;&quot;&gt;(nop)" style="whiteSpace=wrap;html=1;align=center;fontSize=17;fillColor=#a20025;fontColor=#ffffff;strokeColor=#6F0000;" parent="454" vertex="1">
                    <mxGeometry x="210" y="1.25" width="70" height="40" as="geometry"/>
                </mxCell>
                <mxCell id="499" value="WB&lt;br style=&quot;font-size: 17px;&quot;&gt;(nop)" style="whiteSpace=wrap;html=1;align=center;fontSize=17;fillColor=#a20025;fontColor=#ffffff;strokeColor=#6F0000;" parent="454" vertex="1">
                    <mxGeometry x="280" width="70" height="40" as="geometry"/>
                </mxCell>
                <mxCell id="506" value="EX&lt;br style=&quot;font-size: 17px;&quot;&gt;（nop）" style="whiteSpace=wrap;html=1;align=center;fontSize=17;fillColor=#a20025;fontColor=#ffffff;strokeColor=#6F0000;" parent="454" vertex="1">
                    <mxGeometry x="140" width="70" height="40" as="geometry"/>
                </mxCell>
                <mxCell id="460" value="" style="group" parent="1" vertex="1" connectable="0">
                    <mxGeometry x="500" y="1297.5" width="350" height="40" as="geometry"/>
                </mxCell>
                <mxCell id="461" value="IF" style="whiteSpace=wrap;html=1;align=center;fontSize=23;fillColor=#f5f5f5;fontColor=#333333;strokeColor=#666666;" parent="460" vertex="1">
                    <mxGeometry width="70" height="40" as="geometry"/>
                </mxCell>
                <mxCell id="462" value="ID" style="whiteSpace=wrap;html=1;align=center;fontSize=23;fillColor=#dae8fc;strokeColor=#6c8ebf;" parent="460" vertex="1">
                    <mxGeometry x="70" width="70" height="40" as="geometry"/>
                </mxCell>
                <mxCell id="463" value="EX" style="whiteSpace=wrap;html=1;align=center;fontSize=23;fillColor=#d5e8d4;strokeColor=#82b366;" parent="460" vertex="1">
                    <mxGeometry x="140" width="70" height="40" as="geometry"/>
                </mxCell>
                <mxCell id="464" value="MEM" style="whiteSpace=wrap;html=1;align=center;fontSize=23;fillColor=#ffe6cc;strokeColor=#d79b00;" parent="460" vertex="1">
                    <mxGeometry x="210" width="70" height="40" as="geometry"/>
                </mxCell>
                <mxCell id="465" value="RW" style="whiteSpace=wrap;html=1;align=center;fontSize=23;fillColor=#f8cecc;strokeColor=#b85450;" parent="460" vertex="1">
                    <mxGeometry x="280" width="70" height="40" as="geometry"/>
                </mxCell>
                <mxCell id="466" value="&lt;h1&gt;&lt;span style=&quot;font-size: 33px ; font-weight: 400 ; text-align: center&quot;&gt;TRAP 冒险&lt;/span&gt;&lt;br&gt;&lt;/h1&gt;&lt;p&gt;1. ID/EX flush&lt;/p&gt;&lt;p&gt;2. IF/ID flush&lt;/p&gt;&lt;p&gt;3. EX/MEM flush&lt;/p&gt;" style="text;html=1;strokeColor=none;fillColor=none;spacing=5;spacingTop=-20;whiteSpace=wrap;overflow=hidden;rounded=0;" parent="1" vertex="1">
                    <mxGeometry x="810" y="1090" width="230" height="230" as="geometry"/>
                </mxCell>
                <mxCell id="469" value="0x80000014 li a1 4" style="text;html=1;strokeColor=none;fillColor=none;align=center;verticalAlign=middle;whiteSpace=wrap;rounded=0;fontSize=23;" parent="1" vertex="1">
                    <mxGeometry x="-10" y="1182.5" width="240" height="30" as="geometry"/>
                </mxCell>
                <mxCell id="470" value="0x80000018 li a2 4" style="text;html=1;strokeColor=none;fillColor=none;align=center;verticalAlign=middle;whiteSpace=wrap;rounded=0;fontSize=23;" parent="1" vertex="1">
                    <mxGeometry x="-10" y="1217.5" width="240" height="30" as="geometry"/>
                </mxCell>
                <mxCell id="471" value="0x8000001C li a3 4" style="text;html=1;strokeColor=none;fillColor=none;align=center;verticalAlign=middle;whiteSpace=wrap;rounded=0;fontSize=23;" parent="1" vertex="1">
                    <mxGeometry x="-15" y="1260" width="240" height="30" as="geometry"/>
                </mxCell>
                <mxCell id="472" value="(mvect) 0x80001080 li a54" style="text;html=1;strokeColor=none;fillColor=none;align=center;verticalAlign=middle;whiteSpace=wrap;rounded=0;fontSize=23;" parent="1" vertex="1">
                    <mxGeometry x="180" y="1307.5" width="339" height="30" as="geometry"/>
                </mxCell>
                <mxCell id="477" value="" style="group" parent="1" vertex="1" connectable="0">
                    <mxGeometry x="570" y="1337.5" width="350" height="40" as="geometry"/>
                </mxCell>
                <mxCell id="478" value="IF" style="whiteSpace=wrap;html=1;align=center;fontSize=23;fillColor=#f5f5f5;fontColor=#333333;strokeColor=#666666;" parent="477" vertex="1">
                    <mxGeometry width="70" height="40" as="geometry"/>
                </mxCell>
                <mxCell id="479" value="ID" style="whiteSpace=wrap;html=1;align=center;fontSize=23;fillColor=#dae8fc;strokeColor=#6c8ebf;" parent="477" vertex="1">
                    <mxGeometry x="70" width="70" height="40" as="geometry"/>
                </mxCell>
                <mxCell id="480" value="EX" style="whiteSpace=wrap;html=1;align=center;fontSize=23;fillColor=#d5e8d4;strokeColor=#82b366;" parent="477" vertex="1">
                    <mxGeometry x="140" width="70" height="40" as="geometry"/>
                </mxCell>
                <mxCell id="481" value="MEM" style="whiteSpace=wrap;html=1;align=center;fontSize=23;fillColor=#ffe6cc;strokeColor=#d79b00;" parent="477" vertex="1">
                    <mxGeometry x="210" width="70" height="40" as="geometry"/>
                </mxCell>
                <mxCell id="482" value="RW" style="whiteSpace=wrap;html=1;align=center;fontSize=23;fillColor=#f8cecc;strokeColor=#b85450;" parent="477" vertex="1">
                    <mxGeometry x="280" width="70" height="40" as="geometry"/>
                </mxCell>
                <mxCell id="483" value="" style="group" parent="1" vertex="1" connectable="0">
                    <mxGeometry x="640" y="1377.5" width="350" height="40" as="geometry"/>
                </mxCell>
                <mxCell id="484" value="IF" style="whiteSpace=wrap;html=1;align=center;fontSize=23;fillColor=#f5f5f5;fontColor=#333333;strokeColor=#666666;" parent="483" vertex="1">
                    <mxGeometry width="70" height="40" as="geometry"/>
                </mxCell>
                <mxCell id="485" value="ID" style="whiteSpace=wrap;html=1;align=center;fontSize=23;fillColor=#dae8fc;strokeColor=#6c8ebf;" parent="483" vertex="1">
                    <mxGeometry x="70" width="70" height="40" as="geometry"/>
                </mxCell>
                <mxCell id="486" value="EX" style="whiteSpace=wrap;html=1;align=center;fontSize=23;fillColor=#d5e8d4;strokeColor=#82b366;" parent="483" vertex="1">
                    <mxGeometry x="140" width="70" height="40" as="geometry"/>
                </mxCell>
                <mxCell id="487" value="MEM" style="whiteSpace=wrap;html=1;align=center;fontSize=23;fillColor=#ffe6cc;strokeColor=#d79b00;" parent="483" vertex="1">
                    <mxGeometry x="210" width="70" height="40" as="geometry"/>
                </mxCell>
                <mxCell id="488" value="RW" style="whiteSpace=wrap;html=1;align=center;fontSize=23;fillColor=#f8cecc;strokeColor=#b85450;" parent="483" vertex="1">
                    <mxGeometry x="280" width="70" height="40" as="geometry"/>
                </mxCell>
                <mxCell id="489" value="" style="group" parent="1" vertex="1" connectable="0">
                    <mxGeometry x="710" y="1417.5" width="350" height="40" as="geometry"/>
                </mxCell>
                <mxCell id="490" value="IF" style="whiteSpace=wrap;html=1;align=center;fontSize=23;fillColor=#f5f5f5;fontColor=#333333;strokeColor=#666666;" parent="489" vertex="1">
                    <mxGeometry width="70" height="40" as="geometry"/>
                </mxCell>
                <mxCell id="491" value="ID" style="whiteSpace=wrap;html=1;align=center;fontSize=23;fillColor=#dae8fc;strokeColor=#6c8ebf;" parent="489" vertex="1">
                    <mxGeometry x="70" width="70" height="40" as="geometry"/>
                </mxCell>
                <mxCell id="492" value="EX" style="whiteSpace=wrap;html=1;align=center;fontSize=23;fillColor=#d5e8d4;strokeColor=#82b366;" parent="489" vertex="1">
                    <mxGeometry x="140" width="70" height="40" as="geometry"/>
                </mxCell>
                <mxCell id="493" value="MEM" style="whiteSpace=wrap;html=1;align=center;fontSize=23;fillColor=#ffe6cc;strokeColor=#d79b00;" parent="489" vertex="1">
                    <mxGeometry x="210" width="70" height="40" as="geometry"/>
                </mxCell>
                <mxCell id="494" value="RW" style="whiteSpace=wrap;html=1;align=center;fontSize=23;fillColor=#f8cecc;strokeColor=#b85450;" parent="489" vertex="1">
                    <mxGeometry x="280" width="70" height="40" as="geometry"/>
                </mxCell>
                <mxCell id="507" value="0x80002000 mret" style="text;html=1;strokeColor=none;fillColor=none;align=center;verticalAlign=middle;whiteSpace=wrap;rounded=0;fontSize=23;" parent="1" vertex="1">
                    <mxGeometry x="520" y="1467.5" width="250" height="30" as="geometry"/>
                </mxCell>
                <mxCell id="508" value="" style="group" parent="1" vertex="1" connectable="0">
                    <mxGeometry x="780" y="1457.5" width="350" height="40" as="geometry"/>
                </mxCell>
                <mxCell id="509" value="IF" style="whiteSpace=wrap;html=1;align=center;fontSize=23;fillColor=#f5f5f5;fontColor=#333333;strokeColor=#666666;" parent="508" vertex="1">
                    <mxGeometry width="70" height="40" as="geometry"/>
                </mxCell>
                <mxCell id="510" value="ID" style="whiteSpace=wrap;html=1;align=center;fontSize=23;fillColor=#dae8fc;strokeColor=#6c8ebf;" parent="508" vertex="1">
                    <mxGeometry x="70" width="70" height="40" as="geometry"/>
                </mxCell>
                <mxCell id="511" value="EX" style="whiteSpace=wrap;html=1;align=center;fontSize=23;fillColor=#d5e8d4;strokeColor=#82b366;" parent="508" vertex="1">
                    <mxGeometry x="140" width="70" height="40" as="geometry"/>
                </mxCell>
                <mxCell id="512" value="MEM" style="whiteSpace=wrap;html=1;align=center;fontSize=23;fillColor=#ffe6cc;strokeColor=#d79b00;" parent="508" vertex="1">
                    <mxGeometry x="210" width="70" height="40" as="geometry"/>
                </mxCell>
                <mxCell id="513" value="RW" style="whiteSpace=wrap;html=1;align=center;fontSize=23;fillColor=#f8cecc;strokeColor=#b85450;" parent="508" vertex="1">
                    <mxGeometry x="280" width="70" height="40" as="geometry"/>
                </mxCell>
                <mxCell id="514" value="" style="group" parent="1" vertex="1" connectable="0">
                    <mxGeometry x="850" y="1500" width="350" height="40" as="geometry"/>
                </mxCell>
                <mxCell id="515" value="IF" style="whiteSpace=wrap;html=1;align=center;fontSize=23;fillColor=#f5f5f5;fontColor=#333333;strokeColor=#666666;" parent="514" vertex="1">
                    <mxGeometry width="70" height="40" as="geometry"/>
                </mxCell>
                <mxCell id="516" value="ID" style="whiteSpace=wrap;html=1;align=center;fontSize=23;fillColor=#dae8fc;strokeColor=#6c8ebf;" parent="514" vertex="1">
                    <mxGeometry x="70" width="70" height="40" as="geometry"/>
                </mxCell>
                <mxCell id="517" value="EX" style="whiteSpace=wrap;html=1;align=center;fontSize=23;fillColor=#d5e8d4;strokeColor=#82b366;" parent="514" vertex="1">
                    <mxGeometry x="140" width="70" height="40" as="geometry"/>
                </mxCell>
                <mxCell id="518" value="MEM&lt;br style=&quot;font-size: 17px;&quot;&gt;(nop)" style="whiteSpace=wrap;html=1;align=center;fontSize=17;fillColor=#a20025;fontColor=#ffffff;strokeColor=#6F0000;" parent="514" vertex="1">
                    <mxGeometry x="210" width="70" height="40" as="geometry"/>
                </mxCell>
                <mxCell id="519" value="WB&lt;br style=&quot;font-size: 17px;&quot;&gt;(nop)" style="whiteSpace=wrap;html=1;align=center;fontSize=17;fillColor=#a20025;fontColor=#ffffff;strokeColor=#6F0000;" parent="514" vertex="1">
                    <mxGeometry x="280" width="70" height="40" as="geometry"/>
                </mxCell>
                <mxCell id="520" value="" style="group" parent="1" vertex="1" connectable="0">
                    <mxGeometry x="920" y="1540" width="350" height="40" as="geometry"/>
                </mxCell>
                <mxCell id="521" value="IF" style="whiteSpace=wrap;html=1;align=center;fontSize=23;fillColor=#f5f5f5;fontColor=#333333;strokeColor=#666666;" parent="520" vertex="1">
                    <mxGeometry width="70" height="40" as="geometry"/>
                </mxCell>
                <mxCell id="522" value="ID" style="whiteSpace=wrap;html=1;align=center;fontSize=23;fillColor=#dae8fc;strokeColor=#6c8ebf;" parent="520" vertex="1">
                    <mxGeometry x="70" width="70" height="40" as="geometry"/>
                </mxCell>
                <mxCell id="523" value="EX&lt;br style=&quot;font-size: 17px;&quot;&gt;（nop）" style="whiteSpace=wrap;html=1;align=center;fontSize=17;fillColor=#a20025;fontColor=#ffffff;strokeColor=#6F0000;" parent="520" vertex="1">
                    <mxGeometry x="140" width="70" height="40" as="geometry"/>
                </mxCell>
                <mxCell id="524" value="MEM&lt;br style=&quot;font-size: 17px;&quot;&gt;(nop)" style="whiteSpace=wrap;html=1;align=center;fontSize=17;fillColor=#a20025;fontColor=#ffffff;strokeColor=#6F0000;" parent="520" vertex="1">
                    <mxGeometry x="210" width="70" height="40" as="geometry"/>
                </mxCell>
                <mxCell id="525" value="WB&lt;br style=&quot;font-size: 17px;&quot;&gt;(nop)" style="whiteSpace=wrap;html=1;align=center;fontSize=17;fillColor=#a20025;fontColor=#ffffff;strokeColor=#6F0000;" parent="520" vertex="1">
                    <mxGeometry x="280" width="70" height="40" as="geometry"/>
                </mxCell>
                <mxCell id="526" value="" style="group" parent="1" vertex="1" connectable="0">
                    <mxGeometry x="990" y="1580" width="350" height="42.5" as="geometry"/>
                </mxCell>
                <mxCell id="527" value="IF" style="whiteSpace=wrap;html=1;align=center;fontSize=23;fillColor=#f5f5f5;fontColor=#333333;strokeColor=#666666;" parent="526" vertex="1">
                    <mxGeometry width="70" height="40" as="geometry"/>
                </mxCell>
                <mxCell id="528" value="ID&lt;br style=&quot;font-size: 17px;&quot;&gt;(nop)" style="whiteSpace=wrap;html=1;align=center;fontSize=17;fillColor=#a20025;fontColor=#ffffff;strokeColor=#6F0000;" parent="526" vertex="1">
                    <mxGeometry x="70" y="2.5" width="70" height="40" as="geometry"/>
                </mxCell>
                <mxCell id="529" value="ID&lt;br style=&quot;font-size: 17px;&quot;&gt;(nop)" style="whiteSpace=wrap;html=1;align=center;fontSize=17;fillColor=#a20025;fontColor=#ffffff;strokeColor=#6F0000;" parent="526" vertex="1">
                    <mxGeometry x="70" width="70" height="40" as="geometry"/>
                </mxCell>
                <mxCell id="530" value="MEM&lt;br style=&quot;font-size: 17px;&quot;&gt;(nop)" style="whiteSpace=wrap;html=1;align=center;fontSize=17;fillColor=#a20025;fontColor=#ffffff;strokeColor=#6F0000;" parent="526" vertex="1">
                    <mxGeometry x="210" y="1.25" width="70" height="40" as="geometry"/>
                </mxCell>
                <mxCell id="531" value="WB&lt;br style=&quot;font-size: 17px;&quot;&gt;(nop)" style="whiteSpace=wrap;html=1;align=center;fontSize=17;fillColor=#a20025;fontColor=#ffffff;strokeColor=#6F0000;" parent="526" vertex="1">
                    <mxGeometry x="280" width="70" height="40" as="geometry"/>
                </mxCell>
                <mxCell id="532" value="EX&lt;br style=&quot;font-size: 17px;&quot;&gt;（nop）" style="whiteSpace=wrap;html=1;align=center;fontSize=17;fillColor=#a20025;fontColor=#ffffff;strokeColor=#6F0000;" parent="526" vertex="1">
                    <mxGeometry x="140" width="70" height="40" as="geometry"/>
                </mxCell>
                <mxCell id="533" value="" style="group" parent="1" vertex="1" connectable="0">
                    <mxGeometry x="1060" y="1620" width="350" height="40" as="geometry"/>
                </mxCell>
                <mxCell id="534" value="IF" style="whiteSpace=wrap;html=1;align=center;fontSize=23;fillColor=#f5f5f5;fontColor=#333333;strokeColor=#666666;" parent="533" vertex="1">
                    <mxGeometry width="70" height="40" as="geometry"/>
                </mxCell>
                <mxCell id="535" value="ID" style="whiteSpace=wrap;html=1;align=center;fontSize=23;fillColor=#dae8fc;strokeColor=#6c8ebf;" parent="533" vertex="1">
                    <mxGeometry x="70" width="70" height="40" as="geometry"/>
                </mxCell>
                <mxCell id="536" value="EX" style="whiteSpace=wrap;html=1;align=center;fontSize=23;fillColor=#d5e8d4;strokeColor=#82b366;" parent="533" vertex="1">
                    <mxGeometry x="140" width="70" height="40" as="geometry"/>
                </mxCell>
                <mxCell id="537" value="MEM" style="whiteSpace=wrap;html=1;align=center;fontSize=23;fillColor=#ffe6cc;strokeColor=#d79b00;" parent="533" vertex="1">
                    <mxGeometry x="210" width="70" height="40" as="geometry"/>
                </mxCell>
                <mxCell id="538" value="RW" style="whiteSpace=wrap;html=1;align=center;fontSize=23;fillColor=#f8cecc;strokeColor=#b85450;" parent="533" vertex="1">
                    <mxGeometry x="280" width="70" height="40" as="geometry"/>
                </mxCell>
                <mxCell id="539" value="0x80000014 li a1 4" style="text;html=1;strokeColor=none;fillColor=none;align=center;verticalAlign=middle;whiteSpace=wrap;rounded=0;fontSize=23;" parent="1" vertex="1">
                    <mxGeometry x="780" y="1630" width="240" height="30" as="geometry"/>
                </mxCell>
                <mxCell id="540" value="" style="group" parent="1" vertex="1" connectable="0">
                    <mxGeometry x="770" y="-750" width="350" height="40" as="geometry"/>
                </mxCell>
                <mxCell id="541" value="IF" style="whiteSpace=wrap;html=1;align=center;fontSize=23;fillColor=#f5f5f5;fontColor=#333333;strokeColor=#666666;" parent="540" vertex="1">
                    <mxGeometry width="70" height="40" as="geometry"/>
                </mxCell>
                <mxCell id="542" value="ID" style="whiteSpace=wrap;html=1;align=center;fontSize=23;fillColor=#dae8fc;strokeColor=#6c8ebf;" parent="540" vertex="1">
                    <mxGeometry x="70" width="80" height="40" as="geometry"/>
                </mxCell>
                <mxCell id="543" value="EX" style="whiteSpace=wrap;html=1;align=center;fontSize=23;fillColor=#d5e8d4;strokeColor=#82b366;" parent="540" vertex="1">
                    <mxGeometry x="140" width="70" height="40" as="geometry"/>
                </mxCell>
                <mxCell id="544" value="MEM" style="whiteSpace=wrap;html=1;align=center;fontSize=23;fillColor=#ffe6cc;strokeColor=#d79b00;" parent="540" vertex="1">
                    <mxGeometry x="210" width="70" height="40" as="geometry"/>
                </mxCell>
                <mxCell id="545" value="RW" style="whiteSpace=wrap;html=1;align=center;fontSize=23;fillColor=#f8cecc;strokeColor=#b85450;" parent="540" vertex="1">
                    <mxGeometry x="280" width="70" height="40" as="geometry"/>
                </mxCell>
                <mxCell id="546" value="" style="group" parent="1" vertex="1" connectable="0">
                    <mxGeometry x="840" y="-710" width="350" height="40" as="geometry"/>
                </mxCell>
                <mxCell id="547" value="IF" style="whiteSpace=wrap;html=1;align=center;fontSize=23;fillColor=#f5f5f5;fontColor=#333333;strokeColor=#666666;" parent="546" vertex="1">
                    <mxGeometry width="70" height="40" as="geometry"/>
                </mxCell>
                <mxCell id="548" value="ID" style="whiteSpace=wrap;html=1;align=center;fontSize=23;fillColor=#dae8fc;strokeColor=#6c8ebf;" parent="546" vertex="1">
                    <mxGeometry x="70" width="80" height="40" as="geometry"/>
                </mxCell>
                <mxCell id="549" value="EX" style="whiteSpace=wrap;html=1;align=center;fontSize=23;fillColor=#d5e8d4;strokeColor=#82b366;" parent="546" vertex="1">
                    <mxGeometry x="140" width="70" height="40" as="geometry"/>
                </mxCell>
                <mxCell id="550" value="MEM" style="whiteSpace=wrap;html=1;align=center;fontSize=23;fillColor=#ffe6cc;strokeColor=#d79b00;" parent="546" vertex="1">
                    <mxGeometry x="210" width="70" height="40" as="geometry"/>
                </mxCell>
                <mxCell id="578" value="MEM" style="whiteSpace=wrap;html=1;align=center;fontSize=23;fillColor=#a20025;strokeColor=#6F0000;fontColor=#ffffff;" parent="546" vertex="1">
                    <mxGeometry x="280" width="70" height="40" as="geometry"/>
                </mxCell>
                <mxCell id="552" value="" style="group" parent="1" vertex="1" connectable="0">
                    <mxGeometry x="910" y="-670" width="350" height="40" as="geometry"/>
                </mxCell>
                <mxCell id="553" value="IF" style="whiteSpace=wrap;html=1;align=center;fontSize=23;fillColor=#f5f5f5;fontColor=#333333;strokeColor=#666666;" parent="552" vertex="1">
                    <mxGeometry width="70" height="40" as="geometry"/>
                </mxCell>
                <mxCell id="554" value="ID" style="whiteSpace=wrap;html=1;align=center;fontSize=23;fillColor=#dae8fc;strokeColor=#6c8ebf;" parent="552" vertex="1">
                    <mxGeometry x="70" width="80" height="40" as="geometry"/>
                </mxCell>
                <mxCell id="555" value="EX" style="whiteSpace=wrap;html=1;align=center;fontSize=23;fillColor=#d5e8d4;strokeColor=#82b366;" parent="552" vertex="1">
                    <mxGeometry x="140" width="70" height="40" as="geometry"/>
                </mxCell>
                <mxCell id="583" value="EX" style="whiteSpace=wrap;html=1;align=center;fontSize=23;fillColor=#a20025;strokeColor=#6F0000;fontColor=#ffffff;" parent="552" vertex="1">
                    <mxGeometry x="210" width="70" height="40" as="geometry"/>
                </mxCell>
                <mxCell id="584" value="EX" style="whiteSpace=wrap;html=1;align=center;fontSize=23;fillColor=#a20025;strokeColor=#6F0000;fontColor=#ffffff;" parent="552" vertex="1">
                    <mxGeometry x="280" width="70" height="40" as="geometry"/>
                </mxCell>
                <mxCell id="558" value="" style="group" parent="1" vertex="1" connectable="0">
                    <mxGeometry x="980" y="-630" width="350" height="40" as="geometry"/>
                </mxCell>
                <mxCell id="559" value="IF" style="whiteSpace=wrap;html=1;align=center;fontSize=23;fillColor=#f5f5f5;fontColor=#333333;strokeColor=#666666;" parent="558" vertex="1">
                    <mxGeometry width="70" height="40" as="geometry"/>
                </mxCell>
                <mxCell id="560" value="ID" style="whiteSpace=wrap;html=1;align=center;fontSize=23;fillColor=#dae8fc;strokeColor=#6c8ebf;" parent="558" vertex="1">
                    <mxGeometry x="70" width="70" height="40" as="geometry"/>
                </mxCell>
                <mxCell id="585" value="ID" style="whiteSpace=wrap;html=1;align=center;fontSize=23;fillColor=#a20025;strokeColor=#6F0000;fontColor=#ffffff;" parent="558" vertex="1">
                    <mxGeometry x="140" width="70" height="40" as="geometry"/>
                </mxCell>
                <mxCell id="586" value="ID" style="whiteSpace=wrap;html=1;align=center;fontSize=23;fillColor=#a20025;strokeColor=#6F0000;fontColor=#ffffff;" parent="558" vertex="1">
                    <mxGeometry x="210" width="70" height="40" as="geometry"/>
                </mxCell>
                <mxCell id="561" value="EX" style="whiteSpace=wrap;html=1;align=center;fontSize=23;fillColor=#d5e8d4;strokeColor=#82b366;" parent="558" vertex="1">
                    <mxGeometry x="280" width="70" height="40" as="geometry"/>
                </mxCell>
                <mxCell id="571" value="" style="group" parent="1" vertex="1" connectable="0">
                    <mxGeometry x="1050" y="-590" width="350" height="40" as="geometry"/>
                </mxCell>
                <mxCell id="572" value="IF" style="whiteSpace=wrap;html=1;align=center;fontSize=23;fillColor=#f5f5f5;fontColor=#333333;strokeColor=#666666;" parent="571" vertex="1">
                    <mxGeometry width="70" height="40" as="geometry"/>
                </mxCell>
                <mxCell id="573" value="ID" style="whiteSpace=wrap;html=1;align=center;fontSize=23;fillColor=#dae8fc;strokeColor=#6c8ebf;" parent="571" vertex="1">
                    <mxGeometry x="210" width="70" height="40" as="geometry"/>
                </mxCell>
                <mxCell id="574" value="EX" style="whiteSpace=wrap;html=1;align=center;fontSize=23;fillColor=#d5e8d4;strokeColor=#82b366;" parent="571" vertex="1">
                    <mxGeometry x="280" width="70" height="40" as="geometry"/>
                </mxCell>
                <mxCell id="587" value="IF" style="whiteSpace=wrap;html=1;align=center;fontSize=23;fillColor=#a20025;fontColor=#ffffff;strokeColor=#6F0000;" parent="571" vertex="1">
                    <mxGeometry x="70" width="70" height="40" as="geometry"/>
                </mxCell>
                <mxCell id="588" value="IF" style="whiteSpace=wrap;html=1;align=center;fontSize=23;fillColor=#a20025;fontColor=#ffffff;strokeColor=#6F0000;" parent="571" vertex="1">
                    <mxGeometry x="140" width="70" height="40" as="geometry"/>
                </mxCell>
                <mxCell id="577" value="ld a3 10" style="text;html=1;strokeColor=none;fillColor=none;align=center;verticalAlign=middle;whiteSpace=wrap;rounded=0;fontSize=23;" parent="1" vertex="1">
                    <mxGeometry x="700" y="-700" width="120" height="30" as="geometry"/>
                </mxCell>
                <mxCell id="551" value="RW" style="whiteSpace=wrap;html=1;align=center;fontSize=23;fillColor=#f8cecc;strokeColor=#b85450;" parent="1" vertex="1">
                    <mxGeometry x="1260" y="-710" width="70" height="40" as="geometry"/>
                </mxCell>
                <mxCell id="579" value="MEM" style="whiteSpace=wrap;html=1;align=center;fontSize=23;fillColor=#a20025;strokeColor=#6F0000;fontColor=#ffffff;" parent="1" vertex="1">
                    <mxGeometry x="1190" y="-710" width="70" height="40" as="geometry"/>
                </mxCell>
                <mxCell id="557" value="RW" style="whiteSpace=wrap;html=1;align=center;fontSize=23;fillColor=#f8cecc;strokeColor=#b85450;" parent="1" vertex="1">
                    <mxGeometry x="1330" y="-670" width="70" height="40" as="geometry"/>
                </mxCell>
                <mxCell id="582" value="MEM" style="whiteSpace=wrap;html=1;align=center;fontSize=23;fillColor=#ffe6cc;strokeColor=#d79b00;" parent="1" vertex="1">
                    <mxGeometry x="1260" y="-670" width="70" height="40" as="geometry"/>
                </mxCell>
                <mxCell id="563" value="RW" style="whiteSpace=wrap;html=1;align=center;fontSize=23;fillColor=#f8cecc;strokeColor=#b85450;" parent="1" vertex="1">
                    <mxGeometry x="1400" y="-630" width="70" height="40" as="geometry"/>
                </mxCell>
                <mxCell id="562" value="MEM" style="whiteSpace=wrap;html=1;align=center;fontSize=23;fillColor=#ffe6cc;strokeColor=#d79b00;" parent="1" vertex="1">
                    <mxGeometry x="1330" y="-630" width="70" height="40" as="geometry"/>
                </mxCell>
                <mxCell id="576" value="RW" style="whiteSpace=wrap;html=1;align=center;fontSize=23;fillColor=#f8cecc;strokeColor=#b85450;" parent="1" vertex="1">
                    <mxGeometry x="1470" y="-590" width="70" height="40" as="geometry"/>
                </mxCell>
                <mxCell id="575" value="MEM" style="whiteSpace=wrap;html=1;align=center;fontSize=23;fillColor=#ffe6cc;strokeColor=#d79b00;" parent="1" vertex="1">
                    <mxGeometry x="1400" y="-590" width="70" height="40" as="geometry"/>
                </mxCell>
                <mxCell id="590" value="&lt;font style=&quot;font-size: 16px;&quot;&gt;&lt;span style=&quot;font-size: 16px;&quot;&gt;RW&lt;br style=&quot;font-size: 16px;&quot;&gt;&lt;/span&gt;(nop)&lt;br style=&quot;font-size: 16px;&quot;&gt;&lt;/font&gt;" style="whiteSpace=wrap;html=1;align=center;fontSize=16;fillColor=#0050ef;strokeColor=#001DBC;fontColor=#ffffff;" parent="1" vertex="1">
                    <mxGeometry x="1120" y="-550" width="70" height="40" as="geometry"/>
                </mxCell>
                <mxCell id="591" value="&lt;font style=&quot;font-size: 16px;&quot;&gt;&lt;span style=&quot;font-size: 16px;&quot;&gt;RW&lt;br style=&quot;font-size: 16px;&quot;&gt;&lt;/span&gt;(nop)&lt;br style=&quot;font-size: 16px;&quot;&gt;&lt;/font&gt;" style="whiteSpace=wrap;html=1;align=center;fontSize=16;fillColor=#0050ef;strokeColor=#001DBC;fontColor=#ffffff;" parent="1" vertex="1">
                    <mxGeometry x="1190" y="-550" width="70" height="40" as="geometry"/>
                </mxCell>
                <mxCell id="592" value="" style="group" parent="1" vertex="1" connectable="0">
                    <mxGeometry x="1260" y="-550" width="350" height="40" as="geometry"/>
                </mxCell>
                <mxCell id="593" value="IF" style="whiteSpace=wrap;html=1;align=center;fontSize=23;fillColor=#f5f5f5;fontColor=#333333;strokeColor=#666666;" parent="592" vertex="1">
                    <mxGeometry width="70" height="40" as="geometry"/>
                </mxCell>
                <mxCell id="594" value="ID" style="whiteSpace=wrap;html=1;align=center;fontSize=23;fillColor=#dae8fc;strokeColor=#6c8ebf;" parent="592" vertex="1">
                    <mxGeometry x="70" width="80" height="40" as="geometry"/>
                </mxCell>
                <mxCell id="595" value="EX" style="whiteSpace=wrap;html=1;align=center;fontSize=23;fillColor=#d5e8d4;strokeColor=#82b366;" parent="592" vertex="1">
                    <mxGeometry x="140" width="70" height="40" as="geometry"/>
                </mxCell>
                <mxCell id="596" value="MEM" style="whiteSpace=wrap;html=1;align=center;fontSize=23;fillColor=#ffe6cc;strokeColor=#d79b00;" parent="592" vertex="1">
                    <mxGeometry x="210" width="70" height="40" as="geometry"/>
                </mxCell>
                <mxCell id="597" value="RW" style="whiteSpace=wrap;html=1;align=center;fontSize=23;fillColor=#f8cecc;strokeColor=#b85450;" parent="592" vertex="1">
                    <mxGeometry x="280" width="70" height="40" as="geometry"/>
                </mxCell>
                <mxCell id="598" value="&lt;h1&gt;MEM 访存&lt;/h1&gt;&lt;p&gt;1.pc_reg stall&lt;/p&gt;&lt;p&gt;2. if/id stall&lt;/p&gt;&lt;p&gt;3. id/exc stall&lt;/p&gt;&lt;p&gt;4. exc/mem stall&lt;/p&gt;&lt;p&gt;5. mem/wb flush&lt;/p&gt;" style="text;html=1;strokeColor=none;fillColor=none;spacing=5;spacingTop=-20;whiteSpace=wrap;overflow=hidden;rounded=0;fontSize=16;" parent="1" vertex="1">
                    <mxGeometry x="1370" y="-930" width="190" height="250" as="geometry"/>
                </mxCell>
                <mxCell id="599" value="" style="group" parent="1" vertex="1" connectable="0">
                    <mxGeometry x="1330" y="-510" width="350" height="40" as="geometry"/>
                </mxCell>
                <mxCell id="600" value="IF" style="whiteSpace=wrap;html=1;align=center;fontSize=23;fillColor=#f5f5f5;fontColor=#333333;strokeColor=#666666;" parent="599" vertex="1">
                    <mxGeometry width="70" height="40" as="geometry"/>
                </mxCell>
                <mxCell id="601" value="ID" style="whiteSpace=wrap;html=1;align=center;fontSize=23;fillColor=#dae8fc;strokeColor=#6c8ebf;" parent="599" vertex="1">
                    <mxGeometry x="70" width="80" height="40" as="geometry"/>
                </mxCell>
                <mxCell id="602" value="EX" style="whiteSpace=wrap;html=1;align=center;fontSize=23;fillColor=#d5e8d4;strokeColor=#82b366;" parent="599" vertex="1">
                    <mxGeometry x="140" width="70" height="40" as="geometry"/>
                </mxCell>
                <mxCell id="603" value="MEM" style="whiteSpace=wrap;html=1;align=center;fontSize=23;fillColor=#ffe6cc;strokeColor=#d79b00;" parent="599" vertex="1">
                    <mxGeometry x="210" width="70" height="40" as="geometry"/>
                </mxCell>
                <mxCell id="604" value="RW" style="whiteSpace=wrap;html=1;align=center;fontSize=23;fillColor=#f8cecc;strokeColor=#b85450;" parent="599" vertex="1">
                    <mxGeometry x="280" width="70" height="40" as="geometry"/>
                </mxCell>
                <mxCell id="605" value="" style="group" parent="1" vertex="1" connectable="0">
                    <mxGeometry x="-120" y="-870" width="350" height="40" as="geometry"/>
                </mxCell>
                <mxCell id="606" value="IF" style="whiteSpace=wrap;html=1;align=center;fontSize=23;fillColor=#f5f5f5;fontColor=#333333;strokeColor=#666666;" parent="605" vertex="1">
                    <mxGeometry width="70" height="40" as="geometry"/>
                </mxCell>
                <mxCell id="607" value="ID" style="whiteSpace=wrap;html=1;align=center;fontSize=23;fillColor=#dae8fc;strokeColor=#6c8ebf;" parent="605" vertex="1">
                    <mxGeometry x="70" width="80" height="40" as="geometry"/>
                </mxCell>
                <mxCell id="608" value="EX" style="whiteSpace=wrap;html=1;align=center;fontSize=23;fillColor=#d5e8d4;strokeColor=#82b366;" parent="605" vertex="1">
                    <mxGeometry x="140" width="70" height="40" as="geometry"/>
                </mxCell>
                <mxCell id="609" value="MEM" style="whiteSpace=wrap;html=1;align=center;fontSize=23;fillColor=#ffe6cc;strokeColor=#d79b00;" parent="605" vertex="1">
                    <mxGeometry x="210" width="70" height="40" as="geometry"/>
                </mxCell>
                <mxCell id="610" value="RW" style="whiteSpace=wrap;html=1;align=center;fontSize=23;fillColor=#f8cecc;strokeColor=#b85450;" parent="605" vertex="1">
                    <mxGeometry x="280" width="70" height="40" as="geometry"/>
                </mxCell>
                <mxCell id="611" value="" style="group" parent="1" vertex="1" connectable="0">
                    <mxGeometry x="-50" y="-830" width="350" height="40" as="geometry"/>
                </mxCell>
                <mxCell id="612" value="IF" style="whiteSpace=wrap;html=1;align=center;fontSize=23;fillColor=#f5f5f5;fontColor=#333333;strokeColor=#666666;" parent="611" vertex="1">
                    <mxGeometry width="70" height="40" as="geometry"/>
                </mxCell>
                <mxCell id="613" value="ID" style="whiteSpace=wrap;html=1;align=center;fontSize=23;fillColor=#dae8fc;strokeColor=#6c8ebf;" parent="611" vertex="1">
                    <mxGeometry x="70" width="80" height="40" as="geometry"/>
                </mxCell>
                <mxCell id="614" value="EX" style="whiteSpace=wrap;html=1;align=center;fontSize=23;fillColor=#d5e8d4;strokeColor=#82b366;" parent="611" vertex="1">
                    <mxGeometry x="140" width="70" height="40" as="geometry"/>
                </mxCell>
                <mxCell id="615" value="MEM" style="whiteSpace=wrap;html=1;align=center;fontSize=23;fillColor=#ffe6cc;strokeColor=#d79b00;" parent="611" vertex="1">
                    <mxGeometry x="210" width="70" height="40" as="geometry"/>
                </mxCell>
                <mxCell id="616" value="RW" style="whiteSpace=wrap;html=1;align=center;fontSize=23;fillColor=#f8cecc;strokeColor=#b85450;" parent="611" vertex="1">
                    <mxGeometry x="280" width="70" height="40" as="geometry"/>
                </mxCell>
                <mxCell id="617" value="" style="group" parent="1" vertex="1" connectable="0">
                    <mxGeometry x="20" y="-790" width="350" height="40" as="geometry"/>
                </mxCell>
                <mxCell id="618" value="IF" style="whiteSpace=wrap;html=1;align=center;fontSize=23;fillColor=#f5f5f5;fontColor=#333333;strokeColor=#666666;" parent="617" vertex="1">
                    <mxGeometry width="70" height="40" as="geometry"/>
                </mxCell>
                <mxCell id="619" value="ID" style="whiteSpace=wrap;html=1;align=center;fontSize=23;fillColor=#dae8fc;strokeColor=#6c8ebf;" parent="617" vertex="1">
                    <mxGeometry x="70" width="80" height="40" as="geometry"/>
                </mxCell>
                <mxCell id="620" value="EX" style="whiteSpace=wrap;html=1;align=center;fontSize=23;fillColor=#d5e8d4;strokeColor=#82b366;" parent="617" vertex="1">
                    <mxGeometry x="140" width="70" height="40" as="geometry"/>
                </mxCell>
                <mxCell id="621" value="MEM" style="whiteSpace=wrap;html=1;align=center;fontSize=23;fillColor=#ffe6cc;strokeColor=#d79b00;" parent="617" vertex="1">
                    <mxGeometry x="210" width="70" height="40" as="geometry"/>
                </mxCell>
                <mxCell id="623" value="" style="group" parent="1" vertex="1" connectable="0">
                    <mxGeometry x="90" y="-750" width="350" height="40" as="geometry"/>
                </mxCell>
                <mxCell id="624" value="IF" style="whiteSpace=wrap;html=1;align=center;fontSize=23;fillColor=#f5f5f5;fontColor=#333333;strokeColor=#666666;" parent="623" vertex="1">
                    <mxGeometry width="70" height="40" as="geometry"/>
                </mxCell>
                <mxCell id="625" value="ID" style="whiteSpace=wrap;html=1;align=center;fontSize=23;fillColor=#dae8fc;strokeColor=#6c8ebf;" parent="623" vertex="1">
                    <mxGeometry x="70" width="70" height="40" as="geometry"/>
                </mxCell>
                <mxCell id="626" value="EX" style="whiteSpace=wrap;html=1;align=center;fontSize=23;fillColor=#d5e8d4;strokeColor=#82b366;" parent="623" vertex="1">
                    <mxGeometry x="140" width="70" height="40" as="geometry"/>
                </mxCell>
                <mxCell id="627" value="MEM" style="whiteSpace=wrap;html=1;align=center;fontSize=23;fillColor=#ffe6cc;strokeColor=#d79b00;" parent="623" vertex="1">
                    <mxGeometry x="210" width="70" height="40" as="geometry"/>
                </mxCell>
                <mxCell id="629" value="" style="group" parent="1" vertex="1" connectable="0">
                    <mxGeometry x="160" y="-710" width="350" height="40" as="geometry"/>
                </mxCell>
                <mxCell id="630" value="IF" style="whiteSpace=wrap;html=1;align=center;fontSize=23;fillColor=#f5f5f5;fontColor=#333333;strokeColor=#666666;" parent="629" vertex="1">
                    <mxGeometry width="70" height="40" as="geometry"/>
                </mxCell>
                <mxCell id="644" value="IF" style="whiteSpace=wrap;html=1;align=center;fontSize=23;fillColor=#a20025;fontColor=#ffffff;strokeColor=#6F0000;" parent="629" vertex="1">
                    <mxGeometry x="70" width="70" height="40" as="geometry"/>
                </mxCell>
                <mxCell id="645" value="IF" style="whiteSpace=wrap;html=1;align=center;fontSize=23;fillColor=#a20025;fontColor=#ffffff;strokeColor=#6F0000;" parent="629" vertex="1">
                    <mxGeometry x="140" width="70" height="40" as="geometry"/>
                </mxCell>
                <mxCell id="635" value="" style="group" parent="1" vertex="1" connectable="0">
                    <mxGeometry x="320" y="-624" width="350" height="40" as="geometry"/>
                </mxCell>
                <mxCell id="636" value="IF" style="whiteSpace=wrap;html=1;align=center;fontSize=23;fillColor=#f5f5f5;fontColor=#333333;strokeColor=#666666;" parent="635" vertex="1">
                    <mxGeometry width="70" height="40" as="geometry"/>
                </mxCell>
                <mxCell id="637" value="ID" style="whiteSpace=wrap;html=1;align=center;fontSize=23;fillColor=#dae8fc;strokeColor=#6c8ebf;" parent="635" vertex="1">
                    <mxGeometry x="70" width="80" height="40" as="geometry"/>
                </mxCell>
                <mxCell id="638" value="EX" style="whiteSpace=wrap;html=1;align=center;fontSize=23;fillColor=#d5e8d4;strokeColor=#82b366;" parent="635" vertex="1">
                    <mxGeometry x="140" width="70" height="40" as="geometry"/>
                </mxCell>
                <mxCell id="639" value="MEM" style="whiteSpace=wrap;html=1;align=center;fontSize=23;fillColor=#ffe6cc;strokeColor=#d79b00;" parent="635" vertex="1">
                    <mxGeometry x="210" width="70" height="40" as="geometry"/>
                </mxCell>
                <mxCell id="640" value="RW" style="whiteSpace=wrap;html=1;align=center;fontSize=23;fillColor=#f8cecc;strokeColor=#b85450;" parent="635" vertex="1">
                    <mxGeometry x="280" width="70" height="40" as="geometry"/>
                </mxCell>
                <mxCell id="641" value="li a3 10" style="text;html=1;strokeColor=none;fillColor=none;align=center;verticalAlign=middle;whiteSpace=wrap;rounded=0;fontSize=23;" parent="1" vertex="1">
                    <mxGeometry x="-30" y="-740" width="120" height="30" as="geometry"/>
                </mxCell>
                <mxCell id="642" value="li a4 10" style="text;html=1;strokeColor=none;fillColor=none;align=center;verticalAlign=middle;whiteSpace=wrap;rounded=0;fontSize=23;" parent="1" vertex="1">
                    <mxGeometry x="25" y="-705" width="120" height="30" as="geometry"/>
                </mxCell>
                <mxCell id="622" value="RW" style="whiteSpace=wrap;html=1;align=center;fontSize=23;fillColor=#f8cecc;strokeColor=#b85450;" parent="1" vertex="1">
                    <mxGeometry x="500" y="-790" width="70" height="40" as="geometry"/>
                </mxCell>
                <mxCell id="628" value="RW" style="whiteSpace=wrap;html=1;align=center;fontSize=23;fillColor=#f8cecc;strokeColor=#b85450;" parent="1" vertex="1">
                    <mxGeometry x="570" y="-750" width="70" height="40" as="geometry"/>
                </mxCell>
                <mxCell id="634" value="RW" style="whiteSpace=wrap;html=1;align=center;fontSize=23;fillColor=#f8cecc;strokeColor=#b85450;" parent="1" vertex="1">
                    <mxGeometry x="640" y="-710" width="70" height="40" as="geometry"/>
                </mxCell>
                <mxCell id="633" value="MEM" style="whiteSpace=wrap;html=1;align=center;fontSize=23;fillColor=#ffe6cc;strokeColor=#d79b00;" parent="1" vertex="1">
                    <mxGeometry x="570" y="-710" width="70" height="40" as="geometry"/>
                </mxCell>
                <mxCell id="632" value="EX" style="whiteSpace=wrap;html=1;align=center;fontSize=23;fillColor=#d5e8d4;strokeColor=#82b366;" parent="1" vertex="1">
                    <mxGeometry x="500" y="-710" width="70" height="40" as="geometry"/>
                </mxCell>
                <mxCell id="643" value="ld s0 10" style="text;html=1;strokeColor=none;fillColor=none;align=center;verticalAlign=middle;whiteSpace=wrap;rounded=0;fontSize=23;" parent="1" vertex="1">
                    <mxGeometry x="-106" y="-780" width="120" height="30" as="geometry"/>
                </mxCell>
                <mxCell id="631" value="ID&lt;br style=&quot;font-size: 17px;&quot;&gt;(nop)" style="whiteSpace=wrap;html=1;align=center;fontSize=17;fillColor=#0050ef;strokeColor=#001DBC;fontColor=#ffffff;" parent="1" vertex="1">
                    <mxGeometry x="230" y="-670" width="70" height="40" as="geometry"/>
                </mxCell>
                <mxCell id="646" value="&lt;h1&gt;IF 访存&lt;/h1&gt;&lt;p&gt;1.pc_reg stall&lt;/p&gt;&lt;p&gt;2. if/id flush&lt;/p&gt;" style="text;html=1;strokeColor=none;fillColor=none;spacing=5;spacingTop=-20;whiteSpace=wrap;overflow=hidden;rounded=0;fontSize=16;" parent="1" vertex="1">
                    <mxGeometry x="250" y="-1010" width="190" height="160" as="geometry"/>
                </mxCell>
                <mxCell id="652" style="edgeStyle=none;html=1;exitX=0.5;exitY=0;exitDx=0;exitDy=0;entryX=0.5;entryY=1;entryDx=0;entryDy=0;" edge="1" parent="1" source="647" target="650">
                    <mxGeometry relative="1" as="geometry"/>
                </mxCell>
                <mxCell id="647" value="IF" style="whiteSpace=wrap;html=1;align=center;fontSize=23;fillColor=#f5f5f5;fontColor=#333333;strokeColor=#666666;" vertex="1" parent="1">
                    <mxGeometry x="-483" y="-604" width="70" height="40" as="geometry"/>
                </mxCell>
                <mxCell id="648" value="IF" style="whiteSpace=wrap;html=1;align=center;fontSize=23;fillColor=#f5f5f5;fontColor=#333333;strokeColor=#666666;" vertex="1" parent="1">
                    <mxGeometry x="-413" y="-740" width="70" height="40" as="geometry"/>
                </mxCell>
                <mxCell id="649" value="ID" style="whiteSpace=wrap;html=1;align=center;fontSize=23;fillColor=#dae8fc;strokeColor=#6c8ebf;" vertex="1" parent="1">
                    <mxGeometry x="-413" y="-604" width="80" height="40" as="geometry"/>
                </mxCell>
                <mxCell id="650" value="IF" style="whiteSpace=wrap;html=1;align=center;fontSize=23;fillColor=#f5f5f5;fontColor=#333333;strokeColor=#666666;" vertex="1" parent="1">
                    <mxGeometry x="-483" y="-740" width="70" height="40" as="geometry"/>
                </mxCell>
                <mxCell id="653" value="" style="endArrow=classic;html=1;exitX=0.5;exitY=1;exitDx=0;exitDy=0;entryX=0.5;entryY=0;entryDx=0;entryDy=0;" edge="1" parent="1" source="648" target="649">
                    <mxGeometry width="50" height="50" relative="1" as="geometry">
                        <mxPoint x="-360" y="-660" as="sourcePoint"/>
                        <mxPoint x="-310" y="-710" as="targetPoint"/>
                    </mxGeometry>
                </mxCell>
            </root>
        </mxGraphModel>
    </diagram>
</mxfile>